<?xml version="1.0" encoding="UTF-8" standalone="no"?>
<svg
   xmlns:dc="http://purl.org/dc/elements/1.1/"
   xmlns:cc="http://creativecommons.org/ns#"
   xmlns:rdf="http://www.w3.org/1999/02/22-rdf-syntax-ns#"
   xmlns:svg="http://www.w3.org/2000/svg"
   xmlns="http://www.w3.org/2000/svg"
   xmlns:sodipodi="http://sodipodi.sourceforge.net/DTD/sodipodi-0.dtd"
   xmlns:inkscape="http://www.inkscape.org/namespaces/inkscape"
   version="1.1"
   id="Layer_1"
   x="0px"
   y="0px"
   viewBox="69.873 57.264 214.70199 214.70399"
   enable-background="new 69.873 57.264 1015.095 305.045"
   xml:space="preserve"
   inkscape:version="0.91 r13725"
   sodipodi:docname="clasp_logo_icon.svg"
   width="214.70198"
   height="214.70399"><metadata
     id="metadata115"><rdf:RDF><cc:Work
         rdf:about=""><dc:format>image/svg+xml</dc:format><dc:type
           rdf:resource="http://purl.org/dc/dcmitype/StillImage" /><dc:title></dc:title></cc:Work></rdf:RDF></metadata><defs
     id="defs113" /><sodipodi:namedview
     pagecolor="#ffffff"
     bordercolor="#666666"
     borderopacity="1"
     objecttolerance="10"
     gridtolerance="10"
     guidetolerance="10"
     inkscape:pageopacity="0"
     inkscape:pageshadow="2"
     inkscape:window-width="1239"
     inkscape:window-height="618"
     id="namedview111"
     showgrid="false"
     inkscape:zoom="3.2809755"
     inkscape:cx="131.32742"
     inkscape:cy="78.271432"
     inkscape:window-x="32"
     inkscape:window-y="30"
     inkscape:window-maximized="0"
     inkscape:current-layer="Layer_1"
     fit-margin-top="0"
     fit-margin-left="0"
     fit-margin-right="0"
     fit-margin-bottom="0" /><path
     d="m 117.873,129.54298 26.055,23.683 c 1.114,-0.626 2.336,-1.055 3.651,-1.248 l 7.673,-43.496 c -0.914,-0.492 -1.77,-1.078 -2.5,-1.808 l -34.1,17.07 c 0.07,0.489 0.151,0.978 0.151,1.481 0.001,1.541 -0.34,2.996 -0.93,4.318 z"
     id="path3"
     inkscape:connector-curvature="0"
     style="fill:#ff5400;fill-opacity:1" /><path
     d="m 138.471,162.47498 c 0,-1.539 0.341,-2.995 0.927,-4.315 l -26.055,-23.688 c -0.74,0.415 -1.526,0.747 -2.359,0.979 l -2.329,46.156 c 3.976,1.55 6.803,5.389 6.803,9.912 0,1.223 -0.248,2.379 -0.629,3.475 l 38.949,29.883 c 0.515,-0.398 1.061,-0.749 1.646,-1.051 l -8.031,-50.868 c -5.057,-0.839 -8.922,-5.196 -8.922,-10.483 z"
     id="path5"
     inkscape:connector-curvature="0"
     style="fill:#ff5400;fill-opacity:1" /><path
     d="m 177.222,57.263985 c -59.288,0 -107.348999,48.064005 -107.348999,107.354005 0,59.29 48.060999,107.35 107.348999,107.35 59.292,0 107.353,-48.062 107.353,-107.35 0,-59.288 -48.061,-107.354005 -107.353,-107.354005 z M 159.777,162.47499 c 0,4.113 -2.362,7.645 -5.779,9.417 l 8.032,50.869 c 5.053,0.833 8.918,5.193 8.918,10.483 0,5.88 -4.769,10.651 -10.652,10.651 -5.886,0 -10.655,-4.771 -10.655,-10.651 0,-0.971 0.171,-1.895 0.415,-2.79 l -39.27,-30.132 c -1.707,1.162 -3.765,1.845 -5.987,1.845 -5.882999,0 -10.654999,-4.772 -10.654999,-10.652 0,-4.897 3.323,-8.98 7.819999,-10.227 l 2.329,-46.16 c -3.976,-1.546 -6.802999,-5.384 -6.802999,-9.905 0,-5.886 4.771999,-10.655 10.654999,-10.655 2.958,0 5.632,1.209 7.563,3.156 l 34.083,-17.062 c -0.07,-0.499 -0.151,-0.993996 -0.151,-1.513996 0,-5.886 4.769,-10.654009 10.655,-10.654009 5.883,0 10.652,4.769009 10.652,10.654009 0,5.353996 -3.962,9.737996 -9.105,10.493996 l -7.673,43.497 c 3.326,1.811 5.608,5.287 5.608,9.336 z m 25.149,82.569 c 0,1.851 -1.5,3.347 -3.347,3.347 -1.847,0 -3.346,-1.496 -3.346,-3.347 l 0,-157.281005 c 0,-1.851 1.499,-3.347 3.346,-3.347 1.847,0 3.347,1.496 3.347,3.347 l 0,157.281005 z m 16.732,-10.039 c 0,1.851 -1.499,3.347 -3.346,3.347 -1.848,0 -3.347,-1.496 -3.347,-3.347 l 0,-140.548996 c 0,-1.852 1.499,-3.348 3.347,-3.348 1.847,0 3.346,1.496 3.346,3.348 l 0,140.548996 z m 16.732,-23.425 c 0,1.851 -1.499,3.347 -3.346,3.347 -1.847,0 -3.347,-1.496 -3.347,-3.347 l 0,-90.353 c 0,-1.852 1.5,-3.347 3.347,-3.347 1.847,0 3.346,1.496 3.346,3.347 l 0,90.353 z m 44.55,-32.002 c -0.499,1.242 -1.69,2.063 -3.028,2.095 -1.322,0.114 -2.563,-0.739 -3.119,-1.957 l -3.651,-7.998 -0.301,12.542 c -0.037,1.613 -1.221,2.972 -2.813,3.228 -1.583,0.271 -4.521,-0.66 -5.06,-2.18 l -9.845,-23.76 0,33.3 c 0,1.852 -1.499,3.348 -3.346,3.348 -1.847,0 -3.347,-1.496 -3.347,-3.348 l 0,-52.654 c 0,-1.627 2.55,-3.02 4.153,-3.297 1.606,-0.277 3.865,0.64 4.41,2.173 l 9.246,24.974 0.389,-9.025 c 0.037,-1.56 1.234,-2.885 2.761,-3.198 1.506,-0.314 3.108,0.469 3.758,1.888 l 6.482,14.147 2.557,-6.308 c 0.693,-1.714 2.644,-2.533 4.36,-1.854 1.717,0.692 2.547,2.645 1.854,4.356 l -5.46,13.528 z"
     id="path7"
     inkscape:connector-curvature="0"
     style="fill:#ff5400;fill-opacity:1" /></svg>