<?xml version="1.0" encoding="UTF-8" standalone="no"?>
<svg
   xmlns:dc="http://purl.org/dc/elements/1.1/"
   xmlns:cc="http://creativecommons.org/ns#"
   xmlns:rdf="http://www.w3.org/1999/02/22-rdf-syntax-ns#"
   xmlns:svg="http://www.w3.org/2000/svg"
   xmlns="http://www.w3.org/2000/svg"
   xmlns:sodipodi="http://sodipodi.sourceforge.net/DTD/sodipodi-0.dtd"
   xmlns:inkscape="http://www.inkscape.org/namespaces/inkscape"
   version="1.1"
   id="Layer_1"
   x="0px"
   y="0px"
   viewBox="69.873 57.264 899.84201 234.37999"
   enable-background="new 69.873 57.264 1015.095 305.045"
   xml:space="preserve"
   inkscape:version="0.91 r13725"
   sodipodi:docname="clasp_logo_2.svg"
   width="899.84198"
   height="234.38"><metadata
     id="metadata115"><rdf:RDF><cc:Work
         rdf:about=""><dc:format>image/svg+xml</dc:format><dc:type
           rdf:resource="http://purl.org/dc/dcmitype/StillImage" /><dc:title></dc:title></cc:Work></rdf:RDF></metadata><defs
     id="defs113" /><sodipodi:namedview
     pagecolor="#ffffff"
     bordercolor="#666666"
     borderopacity="1"
     objecttolerance="10"
     gridtolerance="10"
     guidetolerance="10"
     inkscape:pageopacity="0"
     inkscape:pageshadow="2"
     inkscape:window-width="1334"
     inkscape:window-height="680"
     id="namedview111"
     showgrid="false"
     fit-margin-top="0"
     fit-margin-left="0"
     fit-margin-right="0"
     fit-margin-bottom="0"
     inkscape:zoom="0.76095916"
     inkscape:cx="309.89483"
     inkscape:cy="81.857493"
     inkscape:window-x="32"
     inkscape:window-y="30"
     inkscape:window-maximized="1"
     inkscape:current-layer="Layer_1" /><path
     d="m 117.873,139.863 26.055,23.683 c 1.114,-0.626 2.336,-1.055 3.651,-1.248 l 7.673,-43.496 c -0.914,-0.492 -1.77,-1.078 -2.5,-1.808 l -34.1,17.07 c 0.07,0.489 0.151,0.978 0.151,1.481 0.001,1.541 -0.34,2.996 -0.93,4.318 z"
     id="path3"
     style="fill:#ff5400;fill-opacity:1"
     inkscape:connector-curvature="0" /><path
     d="m 138.471,172.795 c 0,-1.539 0.341,-2.995 0.927,-4.315 l -26.055,-23.688 c -0.74,0.415 -1.526,0.747 -2.359,0.979 l -2.329,46.156 c 3.976,1.55 6.803,5.389 6.803,9.912 0,1.223 -0.248,2.379 -0.629,3.475 l 38.949,29.883 c 0.515,-0.398 1.061,-0.749 1.646,-1.051 l -8.031,-50.868 c -5.057,-0.839 -8.922,-5.196 -8.922,-10.483 z"
     id="path5"
     style="fill:#ff5400;fill-opacity:1"
     inkscape:connector-curvature="0" /><path
     d="m 177.222,67.584 c -59.288,0 -107.348999,48.064 -107.348999,107.354 0,59.29 48.060999,107.35 107.348999,107.35 59.292,0 107.353,-48.062 107.353,-107.35 0,-59.288 -48.061,-107.354 -107.353,-107.354 z m -17.445,105.211 c 0,4.113 -2.362,7.645 -5.779,9.417 l 8.032,50.869 c 5.053,0.833 8.918,5.193 8.918,10.483 0,5.88 -4.769,10.651 -10.652,10.651 -5.886,0 -10.655,-4.771 -10.655,-10.651 0,-0.971 0.171,-1.895 0.415,-2.79 l -39.27,-30.132 c -1.707,1.162 -3.765,1.845 -5.987,1.845 -5.882999,0 -10.654999,-4.772 -10.654999,-10.652 0,-4.897 3.323,-8.98 7.819999,-10.227 l 2.329,-46.16 c -3.976,-1.546 -6.802999,-5.384 -6.802999,-9.905 0,-5.886 4.771999,-10.655 10.654999,-10.655 2.958,0 5.632,1.209 7.563,3.156 l 34.083,-17.062 c -0.07,-0.499 -0.151,-0.994 -0.151,-1.514 0,-5.886 4.769,-10.654 10.655,-10.654 5.883,0 10.652,4.769 10.652,10.654 0,5.354 -3.962,9.738 -9.105,10.494 l -7.673,43.497 c 3.326,1.811 5.608,5.287 5.608,9.336 z m 25.149,82.569 c 0,1.851 -1.5,3.347 -3.347,3.347 -1.847,0 -3.346,-1.496 -3.346,-3.347 l 0,-157.281 c 0,-1.851 1.499,-3.347 3.346,-3.347 1.847,0 3.347,1.496 3.347,3.347 l 0,157.281 z m 16.732,-10.039 c 0,1.851 -1.499,3.347 -3.346,3.347 -1.848,0 -3.347,-1.496 -3.347,-3.347 l 0,-140.549 c 0,-1.852 1.499,-3.348 3.347,-3.348 1.847,0 3.346,1.496 3.346,3.348 l 0,140.549 z M 218.39,221.9 c 0,1.851 -1.499,3.347 -3.346,3.347 -1.847,0 -3.347,-1.496 -3.347,-3.347 l 0,-90.353 c 0,-1.852 1.5,-3.347 3.347,-3.347 1.847,0 3.346,1.496 3.346,3.347 l 0,90.353 z m 44.55,-32.002 c -0.499,1.242 -1.69,2.063 -3.028,2.095 -1.322,0.114 -2.563,-0.739 -3.119,-1.957 l -3.651,-7.998 -0.301,12.542 c -0.037,1.613 -1.221,2.972 -2.813,3.228 -1.583,0.271 -4.521,-0.66 -5.06,-2.18 l -9.845,-23.76 0,33.3 c 0,1.852 -1.499,3.348 -3.346,3.348 -1.847,0 -3.347,-1.496 -3.347,-3.348 l 0,-52.654 c 0,-1.627 2.55,-3.02 4.153,-3.297 1.606,-0.277 3.865,0.64 4.41,2.173 l 9.246,24.974 0.389,-9.025 c 0.037,-1.56 1.234,-2.885 2.761,-3.198 1.506,-0.314 3.108,0.469 3.758,1.888 l 6.482,14.147 2.557,-6.308 c 0.693,-1.714 2.644,-2.533 4.36,-1.854 1.717,0.692 2.547,2.645 1.854,4.356 l -5.46,13.528 z"
     id="path7"
     style="fill:#ff5400;fill-opacity:1"
     inkscape:connector-curvature="0" /><g
     enable-background="new    "
     id="g9"
     transform="translate(0.2170011,-6.1035166e-8)"><path
       d="m 457.579,134.966 -17.069,18.215 c -8.662,-8.152 -17.579,-12.61 -29.297,-12.61 -20.508,0 -36.049,16.05 -36.049,39.105 0,23.057 15.541,39.106 36.049,39.106 11.719,0 22.164,-5.478 29.934,-12.738 l 16.432,18.343 c -11.209,12.865 -27.259,19.489 -45.602,19.489 -38.724,0 -64.2,-27.642 -64.2,-64.2 0,-36.558 25.476,-64.199 64.2,-64.199 18.342,0 34.774,6.624 45.602,19.489 z"
       id="path11"
       style="fill:#ff5400;fill-opacity:1"
       inkscape:connector-curvature="0" /><path
       d="m 487.379,240.691 0,-183.427 26.75,0 0,183.428 -26.75,0 z"
       id="path13"
       style="fill:#ff5400;fill-opacity:1"
       inkscape:connector-curvature="0" /><path
       d="m 646.474,240.691 0,-14.648 c -8.535,10.827 -20.891,17.833 -38.342,17.833 -34.138,0 -61.015,-26.877 -61.015,-64.2 0,-37.322 26.877,-64.199 61.015,-64.199 17.451,0 29.807,7.133 38.342,17.961 l 0,-14.776 26.623,0 0,93.61725 0,28.41275 -26.623,0 z m -71.971,-61.015 c 0,21.4 13.885,39.106 36.813,39.106 21.909,0 36.813,-16.814 36.813,-39.106 0,-22.291 -14.904,-39.105 -36.813,-39.105 -22.928,-0.001 -36.813,17.705 -36.813,39.105 z"
       id="path15"
       inkscape:connector-curvature="0"
       style="fill:#ff5400;fill-opacity:1"
       sodipodi:nodetypes="ccssscccccccssscs" /><path
       d="m 760.218,138.787 c -14.648,0 -23.056,5.859 -23.056,14.521 0,8.662 8.917,10.955 20.126,12.61 l 12.611,1.911 c 26.621,3.948 42.417,15.158 42.417,36.049 0,23.438 -20.381,39.869 -55.538,39.869 -12.482,0 -34.647,-2.42 -52.354,-15.667 l 12.356,-19.999 c 8.661,6.751 20.509,12.483 40.252,12.483 18.343,0 27.769,-5.732 27.769,-14.903 0,-7.006 -6.496,-11.465 -21.145,-13.503 l -12.738,-1.655 c -27.132,-3.694 -41.398,-16.051 -41.398,-35.794 0,-24.075 19.361,-39.106 50.442,-39.106 19.234,0 36.686,4.714 49.424,12.866 l -11.464,20.763 c -7.387,-4.458 -22.419,-10.445 -37.704,-10.445 z"
       id="path17"
       style="fill:#ff5400;fill-opacity:1"
       inkscape:connector-curvature="0" /><path
       d="m 969.498,179.676 c 0,37.323 -26.877,64.2 -61.016,64.2 -17.451,0 -29.68,-7.006 -38.213,-17.706 l 0,65.474 -26.623,0 0,-172.983 26.623,0 0,14.521 c 8.533,-10.7 20.762,-17.706 38.213,-17.706 34.139,0.001 61.016,26.878 61.016,64.2 z m -101.012,0 c 0,22.292 14.902,39.106 36.812,39.106 22.928,0 36.812,-17.706 36.812,-39.106 0,-21.399 -13.885,-39.105 -36.812,-39.105 -21.91,-0.001 -36.812,16.814 -36.812,39.105 z"
       id="path19"
       style="fill:#ff5400;fill-opacity:1"
       inkscape:connector-curvature="0" /></g></svg>