<?xml version="1.0" encoding="utf-8"?>
<!DOCTYPE svg PUBLIC "-//W3C//DTD SVG 1.1//EN" "http://www.w3.org/Graphics/SVG/1.1/DTD/svg11.dtd">
<svg version="1.1" id="Layer_1" xmlns="http://www.w3.org/2000/svg" xmlns:xlink="http://www.w3.org/1999/xlink" x="0px" y="0px" viewBox="69.873 57.264 1015.095 305.045"
	 enable-background="new 69.873 57.264 1015.095 305.045" xml:space="preserve">
<path fill="#FF6D24" d="M117.656,139.863l26.055,23.683c1.114-0.626,2.336-1.055,3.651-1.248l7.673-43.496
	c-0.914-0.492-1.77-1.078-2.5-1.808l-34.1,17.07c0.07,0.489,0.151,0.978,0.151,1.481
	C118.587,137.086,118.246,138.541,117.656,139.863z"/>
<path fill="#FF6D24" d="M138.254,172.795c0-1.539,0.341-2.995,0.927-4.315l-26.055-23.688c-0.74,0.415-1.526,0.747-2.359,0.979
	l-2.329,46.156c3.976,1.55,6.803,5.389,6.803,9.912c0,1.223-0.248,2.379-0.629,3.475l38.949,29.883
	c0.515-0.398,1.061-0.749,1.646-1.051l-8.031-50.868C142.119,182.439,138.254,178.082,138.254,172.795z"/>
<path fill="#FF6D24" d="M177.005,67.584c-59.288,0-107.349,48.064-107.349,107.354s48.061,107.35,107.349,107.35
	c59.292,0,107.353-48.062,107.353-107.35S236.297,67.584,177.005,67.584z M159.56,172.795c0,4.113-2.362,7.645-5.779,9.417
	l8.032,50.869c5.053,0.833,8.918,5.193,8.918,10.483c0,5.88-4.769,10.651-10.652,10.651c-5.886,0-10.655-4.771-10.655-10.651
	c0-0.971,0.171-1.895,0.415-2.79l-39.27-30.132c-1.707,1.162-3.765,1.845-5.987,1.845c-5.883,0-10.655-4.772-10.655-10.652
	c0-4.897,3.323-8.98,7.82-10.227l2.329-46.16c-3.976-1.546-6.803-5.384-6.803-9.905c0-5.886,4.772-10.655,10.655-10.655
	c2.958,0,5.632,1.209,7.563,3.156l34.083-17.062c-0.07-0.499-0.151-0.994-0.151-1.514c0-5.886,4.769-10.654,10.655-10.654
	c5.883,0,10.652,4.769,10.652,10.654c0,5.354-3.962,9.738-9.105,10.494l-7.673,43.497C157.278,165.27,159.56,168.746,159.56,172.795
	z M184.709,255.364c0,1.851-1.5,3.347-3.347,3.347s-3.346-1.496-3.346-3.347V98.083c0-1.851,1.499-3.347,3.346-3.347
	s3.347,1.496,3.347,3.347V255.364z M201.441,245.325c0,1.851-1.499,3.347-3.346,3.347c-1.848,0-3.347-1.496-3.347-3.347V104.776
	c0-1.852,1.499-3.348,3.347-3.348c1.847,0,3.346,1.496,3.346,3.348V245.325z M218.173,221.9c0,1.851-1.499,3.347-3.346,3.347
	c-1.847,0-3.347-1.496-3.347-3.347v-90.353c0-1.852,1.5-3.347,3.347-3.347c1.847,0,3.346,1.496,3.346,3.347V221.9z M262.723,189.898
	c-0.499,1.242-1.69,2.063-3.028,2.095c-1.322,0.114-2.563-0.739-3.119-1.957l-3.651-7.998l-0.301,12.542
	c-0.037,1.613-1.221,2.972-2.813,3.228c-1.583,0.271-4.521-0.66-5.06-2.18l-9.845-23.76v33.3c0,1.852-1.499,3.348-3.346,3.348
	c-1.847,0-3.347-1.496-3.347-3.348v-52.654c0-1.627,2.55-3.02,4.153-3.297c1.606-0.277,3.865,0.64,4.41,2.173l9.246,24.974
	l0.389-9.025c0.037-1.56,1.234-2.885,2.761-3.198c1.506-0.314,3.108,0.469,3.758,1.888l6.482,14.147l2.557-6.308
	c0.693-1.714,2.644-2.533,4.36-1.854c1.717,0.692,2.547,2.645,1.854,4.356L262.723,189.898z"/>
<g enable-background="new    ">
	<path fill="#F36E21" d="M457.579,134.966l-17.069,18.215c-8.662-8.152-17.579-12.61-29.297-12.61
		c-20.508,0-36.049,16.05-36.049,39.105c0,23.057,15.541,39.106,36.049,39.106c11.719,0,22.164-5.478,29.934-12.738l16.432,18.343
		c-11.209,12.865-27.259,19.489-45.602,19.489c-38.724,0-64.2-27.642-64.2-64.2c0-36.558,25.476-64.199,64.2-64.199
		C430.319,115.477,446.751,122.101,457.579,134.966z"/>
	<path fill="#F36E21" d="M487.379,240.691V57.264h26.75v183.428H487.379z"/>
	<path fill="#F36E21" d="M646.474,240.691v-14.648c-8.535,10.827-20.891,17.833-38.342,17.833c-34.138,0-61.015-26.877-61.015-64.2
		c0-37.322,26.877-64.199,61.015-64.199c17.451,0,29.807,7.133,38.342,17.961v-14.776h26.623v122.03H646.474z M574.503,179.676
		c0,21.4,13.885,39.106,36.813,39.106c21.909,0,36.813-16.814,36.813-39.106c0-22.291-14.904-39.105-36.813-39.105
		C588.388,140.57,574.503,158.276,574.503,179.676z"/>
	<path fill="#F36E21" d="M760.218,138.787c-14.648,0-23.056,5.859-23.056,14.521s8.917,10.955,20.126,12.61l12.611,1.911
		c26.621,3.948,42.417,15.158,42.417,36.049c0,23.438-20.381,39.869-55.538,39.869c-12.482,0-34.647-2.42-52.354-15.667
		l12.356-19.999c8.661,6.751,20.509,12.483,40.252,12.483c18.343,0,27.769-5.732,27.769-14.903c0-7.006-6.496-11.465-21.145-13.503
		l-12.738-1.655c-27.132-3.694-41.398-16.051-41.398-35.794c0-24.075,19.361-39.106,50.442-39.106
		c19.234,0,36.686,4.714,49.424,12.866l-11.464,20.763C790.535,144.774,775.503,138.787,760.218,138.787z"/>
	<path fill="#F36E21" d="M969.498,179.676c0,37.323-26.877,64.2-61.016,64.2c-17.451,0-29.68-7.006-38.213-17.706v65.474h-26.623
		V118.661h26.623v14.521c8.533-10.7,20.762-17.706,38.213-17.706C942.621,115.477,969.498,142.354,969.498,179.676z
		 M868.486,179.676c0,22.292,14.902,39.106,36.812,39.106c22.928,0,36.812-17.706,36.812-39.106
		c0-21.399-13.885-39.105-36.812-39.105C883.388,140.57,868.486,157.385,868.486,179.676z"/>
</g>
<g enable-background="new    ">
	<path d="M96.239,331.144l-3.795,2.53c-1.707-2.511-4.478-4.057-7.852-4.057c-5.723,0-9.96,4.156-9.96,10.221
		s4.237,10.222,9.96,10.222c3.354,0,6.064-1.486,7.832-4.036l3.695,2.71c-2.39,3.515-6.586,5.684-11.526,5.684
		c-8.635,0-14.719-6.165-14.719-14.579c0-8.413,6.084-14.578,14.719-14.578C89.592,325.26,94.03,327.488,96.239,331.144z"/>
	<path d="M120.553,344.276c0,5.763-4.418,10.12-10.362,10.12s-10.341-4.357-10.341-10.12c0-5.764,4.397-10.121,10.341-10.121
		S120.553,338.513,120.553,344.276z M104.167,344.276c0,3.634,2.59,6.164,6.024,6.164c3.434,0,6.044-2.53,6.044-6.164
		c0-3.635-2.61-6.165-6.044-6.165C106.758,338.111,104.167,340.642,104.167,344.276z"/>
	<path d="M157.318,341.806v12.089h-4.217v-10.703c0-3.232-1.647-5.04-4.478-5.04c-2.711,0-4.98,1.787-4.98,5.08v10.663h-4.217
		v-10.703c0-3.232-1.647-5.04-4.478-5.04c-2.711,0-4.98,1.787-4.98,5.08v10.663h-4.217v-19.237h4.177v2.35
		c1.546-2.249,3.936-2.852,5.904-2.852c2.952,0,5.301,1.285,6.647,3.434c1.667-2.751,4.618-3.434,7.028-3.434
		C154.085,334.155,157.318,337.308,157.318,341.806z"/>
	<path d="M183.539,344.276c0,5.883-4.237,10.12-9.619,10.12c-2.751,0-4.679-1.104-6.024-2.791v10.321h-4.197v-27.27h4.197v2.289
		c1.345-1.687,3.273-2.791,6.024-2.791C179.302,334.155,183.539,338.393,183.539,344.276z M167.615,344.276
		c0,3.514,2.349,6.164,5.803,6.164c3.614,0,5.803-2.791,5.803-6.164c0-3.374-2.189-6.165-5.803-6.165
		C169.964,338.111,167.615,340.762,167.615,344.276z"/>
	<path d="M197.452,354.396c-4.518,0-8.916-2.53-8.916-8.654v-11.085h4.217v10.703c0,3.715,2.048,5.08,4.699,5.08
		c2.65,0,4.699-1.365,4.699-5.08v-10.703h4.217v11.085C206.367,351.866,201.95,354.396,197.452,354.396z"/>
	<path d="M218.493,338.473v8.374c0,2.57,1.366,3.594,3.052,3.594c1.305,0,2.731-0.582,3.875-1.305l1.667,3.354
		c-1.546,1.044-3.474,1.907-5.904,1.907c-4.357,0-6.908-2.35-6.908-7.47v-8.454h-3.835v-3.815h3.835v-5.823h4.217v5.823h7.37v3.815
		H218.493z"/>
	<path d="M245.258,353.895v-2.31c-1.345,1.707-3.293,2.812-6.044,2.812c-5.382,0-9.619-4.237-9.619-10.12
		c0-5.884,4.237-10.121,9.619-10.121c2.751,0,4.699,1.125,6.044,2.831v-2.329h4.197v19.237H245.258z M233.913,344.276
		c0,3.373,2.188,6.164,5.803,6.164c3.454,0,5.803-2.65,5.803-6.164c0-3.515-2.35-6.165-5.803-6.165
		C236.101,338.111,233.913,340.902,233.913,344.276z"/>
	<path d="M261.781,338.473v8.374c0,2.57,1.366,3.594,3.052,3.594c1.305,0,2.731-0.582,3.875-1.305l1.667,3.354
		c-1.546,1.044-3.474,1.907-5.904,1.907c-4.357,0-6.908-2.35-6.908-7.47v-8.454h-3.835v-3.815h3.835v-5.823h4.217v5.823h7.37v3.815
		H261.781z"/>
	<path d="M279.33,328.011c0,1.687-1.305,2.932-2.972,2.932c-1.687,0-2.932-1.245-2.932-2.932c0-1.667,1.245-2.972,2.932-2.972
		C278.025,325.039,279.33,326.344,279.33,328.011z M274.27,353.895v-19.237h4.217v19.237H274.27z"/>
	<path d="M304.389,344.276c0,5.763-4.418,10.12-10.362,10.12s-10.341-4.357-10.341-10.12c0-5.764,4.397-10.121,10.341-10.121
		S304.389,338.513,304.389,344.276z M288.003,344.276c0,3.634,2.59,6.164,6.024,6.164c3.434,0,6.044-2.53,6.044-6.164
		c0-3.635-2.61-6.165-6.044-6.165C290.594,338.111,288.003,340.642,288.003,344.276z"/>
	<path d="M327.479,341.806v12.089h-4.217v-10.703c0-3.232-1.647-5.04-4.478-5.04c-2.711,0-4.98,1.787-4.98,5.08v10.663h-4.217
		v-19.237h4.177v2.35c1.546-2.249,3.936-2.852,5.904-2.852C324.246,334.155,327.479,337.308,327.479,341.806z"/>
	<path d="M348.139,353.895v-2.31c-1.345,1.707-3.293,2.812-6.044,2.812c-5.382,0-9.619-4.237-9.619-10.12
		c0-5.884,4.237-10.121,9.619-10.121c2.751,0,4.699,1.125,6.044,2.831v-2.329h4.197v19.237H348.139z M336.793,344.276
		c0,3.373,2.188,6.164,5.803,6.164c3.454,0,5.803-2.65,5.803-6.164c0-3.515-2.35-6.165-5.803-6.165
		C338.982,338.111,336.793,340.902,336.793,344.276z"/>
	<path d="M358.919,353.895v-28.916h4.217v28.916H358.919z"/>
	<path d="M381.085,353.895v-28.113h4.538v23.816h15.562v4.297H381.085z"/>
	<path d="M410.299,328.011c0,1.687-1.305,2.932-2.972,2.932c-1.687,0-2.932-1.245-2.932-2.932c0-1.667,1.245-2.972,2.932-2.972
		C408.994,325.039,410.299,326.344,410.299,328.011z M405.239,353.895v-19.237h4.217v19.237H405.239z"/>
	<path d="M433.933,341.806v12.089h-4.217v-10.703c0-3.232-1.647-5.04-4.478-5.04c-2.711,0-4.98,1.787-4.98,5.08v10.663h-4.217
		v-19.237h4.177v2.35c1.546-2.249,3.936-2.852,5.904-2.852C430.7,334.155,433.933,337.308,433.933,341.806z"/>
	<path d="M454.251,336.967v-2.31h4.217v17.892c0,6.045-3.896,9.76-10.322,9.76c-2.892,0-6.024-0.783-8.052-2.229l1.526-3.554
		c1.948,1.204,4.177,1.947,6.526,1.947c3.956,0,6.104-2.148,6.104-5.743v-1.546c-1.446,1.848-3.594,2.812-6.406,2.812
		c-4.397,0-8.916-3.695-8.916-9.92s4.518-9.92,8.916-9.92C450.657,334.155,452.806,335.119,454.251,336.967z M443.248,344.075
		c0,3.213,2.148,5.964,5.683,5.964c3.394,0,5.683-2.591,5.683-5.964c0-3.374-2.29-5.964-5.683-5.964
		C445.396,338.111,443.248,340.802,443.248,344.075z"/>
	<path d="M473.767,354.396c-4.518,0-8.916-2.53-8.916-8.654v-11.085h4.217v10.703c0,3.715,2.048,5.08,4.699,5.08
		c2.65,0,4.699-1.365,4.699-5.08v-10.703h4.217v11.085C482.683,351.866,478.265,354.396,473.767,354.396z"/>
	<path d="M494.126,328.011c0,1.687-1.305,2.932-2.972,2.932c-1.687,0-2.932-1.245-2.932-2.932c0-1.667,1.245-2.972,2.932-2.972
		C492.821,325.039,494.126,326.344,494.126,328.011z M489.065,353.895v-19.237h4.217v19.237H489.065z"/>
	<path d="M507.017,337.83c-2.309,0-3.635,0.924-3.635,2.289s1.406,1.727,3.173,1.988l1.988,0.301
		c4.197,0.623,6.687,2.39,6.687,5.683c0,3.695-3.213,6.286-8.755,6.286c-1.968,0-5.462-0.382-8.253-2.471l1.948-3.152
		c1.366,1.064,3.233,1.968,6.346,1.968c2.892,0,4.377-0.903,4.377-2.35c0-1.104-1.024-1.807-3.333-2.128l-2.008-0.262
		c-4.277-0.582-6.526-2.529-6.526-5.643c0-3.795,3.052-6.164,7.952-6.164c3.032,0,5.783,0.742,7.791,2.027l-1.807,3.273
		C511.796,338.773,509.426,337.83,507.017,337.83z"/>
	<path d="M525.91,338.473v8.374c0,2.57,1.366,3.594,3.052,3.594c1.305,0,2.731-0.582,3.875-1.305l1.667,3.354
		c-1.546,1.044-3.474,1.907-5.904,1.907c-4.357,0-6.908-2.35-6.908-7.47v-8.454h-3.835v-3.815h3.835v-5.823h4.217v5.823h7.37v3.815
		H525.91z"/>
	<path d="M543.458,328.011c0,1.687-1.305,2.932-2.972,2.932c-1.687,0-2.932-1.245-2.932-2.932c0-1.667,1.245-2.972,2.932-2.972
		C542.153,325.039,543.458,326.344,543.458,328.011z M538.397,353.895v-19.237h4.217v19.237H538.397z"/>
	<path d="M565.124,337.228l-2.691,2.872c-1.366-1.285-2.771-1.988-4.619-1.988c-3.233,0-5.683,2.53-5.683,6.165
		c0,3.634,2.45,6.164,5.683,6.164c1.848,0,3.494-0.863,4.719-2.008l2.591,2.892c-1.767,2.028-4.297,3.072-7.189,3.072
		c-6.104,0-10.121-4.357-10.121-10.12c0-5.764,4.016-10.121,10.121-10.121C560.827,334.155,563.417,335.199,565.124,337.228z"/>
	<path d="M576.968,337.83c-2.309,0-3.635,0.924-3.635,2.289s1.406,1.727,3.174,1.988l1.988,0.301
		c4.195,0.623,6.686,2.39,6.686,5.683c0,3.695-3.213,6.286-8.754,6.286c-1.969,0-5.463-0.382-8.254-2.471l1.947-3.152
		c1.366,1.064,3.234,1.968,6.346,1.968c2.893,0,4.379-0.903,4.379-2.35c0-1.104-1.025-1.807-3.334-2.128l-2.008-0.262
		c-4.277-0.582-6.527-2.529-6.527-5.643c0-3.795,3.053-6.164,7.953-6.164c3.031,0,5.783,0.742,7.791,2.027l-1.809,3.273
		C581.748,338.773,579.378,337.83,576.968,337.83z"/>
	<path d="M616.705,350.562c-2.029,2.188-4.68,3.835-8.494,3.835c-5.262,0-8.475-2.73-8.475-7.41c0-3.353,2.33-5.803,5-7.831
		c-2.57-2.57-3.795-4.337-3.795-7.148c0-3.815,3.113-6.728,7.771-6.728c4.598,0,7.73,2.651,7.73,6.587
		c0,3.133-2.551,5.422-5.32,7.45l5.201,5l3.875-6.004l3.414,2.128l-3.555,5.562c-0.242,0.401-0.502,0.783-0.764,1.185l6.969,6.707
		h-6.064L616.705,350.562z M613.792,347.79l-6.186-5.903c-1.887,1.506-3.332,3.032-3.332,4.96c0,2.148,1.707,3.594,4.197,3.594
		C610.701,350.44,612.246,349.557,613.792,347.79z M608.271,336.585c2.068-1.485,3.693-2.911,3.693-4.518
		c0-1.788-1.184-2.812-3.252-2.812s-3.232,1.104-3.232,3.012C605.48,333.653,606.062,334.437,608.271,336.585z"/>
	<path d="M652.041,329.597c-3.756,0-6.326,1.627-6.326,4.197c0,2.35,2.209,3.213,5.844,3.755l1.949,0.261
		c4.557,0.643,9.055,2.511,9.055,7.731c0,5.703-5.18,8.855-11.264,8.855c-3.797,0-8.434-1.265-11.307-3.775l2.471-3.614
		c1.928,1.768,5.562,3.093,8.814,3.093c3.676,0,6.566-1.566,6.566-4.157c0-2.188-2.209-3.232-6.324-3.795l-2.189-0.302
		c-4.176-0.582-8.334-2.529-8.334-7.771c0-5.623,4.98-8.775,11.086-8.775c4.096,0,7.328,1.165,10.16,3.032l-2.309,3.675
		C657.523,330.48,654.912,329.597,652.041,329.597z"/>
	<path d="M687.982,344.276c0,5.883-4.236,10.12-9.617,10.12c-2.752,0-4.68-1.104-6.025-2.791v10.321h-4.197v-27.27h4.197v2.289
		c1.346-1.687,3.273-2.791,6.025-2.791C683.746,334.155,687.982,338.393,687.982,344.276z M672.058,344.276
		c0,3.514,2.35,6.164,5.803,6.164c3.615,0,5.805-2.791,5.805-6.164c0-3.374-2.189-6.165-5.805-6.165
		C674.408,338.111,672.058,340.762,672.058,344.276z"/>
	<path d="M710.47,344.256c0,0.542-0.021,1.084-0.082,1.566h-14.217c0.543,3.454,3.012,4.899,5.723,4.899
		c1.928,0,3.957-0.743,5.562-2.028l2.09,2.992c-2.35,2.008-5,2.711-7.912,2.711c-5.783,0-9.84-4.016-9.84-10.12
		c0-6.024,3.916-10.121,9.578-10.121C706.734,334.155,710.47,338.252,710.47,344.256z M696.193,342.629h9.979
		c-0.461-2.991-2.209-4.738-4.879-4.738C698.3,337.891,696.613,339.818,696.193,342.629z"/>
	<path d="M732.957,344.256c0,0.542-0.02,1.084-0.08,1.566H718.66c0.541,3.454,3.012,4.899,5.723,4.899
		c1.928,0,3.955-0.743,5.562-2.028l2.088,2.992c-2.35,2.008-5,2.711-7.912,2.711c-5.783,0-9.84-4.016-9.84-10.12
		c0-6.024,3.916-10.121,9.58-10.121C729.222,334.155,732.957,338.252,732.957,344.256z M718.679,342.629h9.98
		c-0.463-2.991-2.209-4.738-4.881-4.738C720.789,337.891,719.101,339.818,718.679,342.629z"/>
	<path d="M754.08,337.228l-2.691,2.872c-1.365-1.285-2.771-1.988-4.617-1.988c-3.234,0-5.684,2.53-5.684,6.165
		c0,3.634,2.449,6.164,5.684,6.164c1.846,0,3.492-0.863,4.719-2.008l2.59,2.892c-1.768,2.028-4.297,3.072-7.189,3.072
		c-6.104,0-10.121-4.357-10.121-10.12c0-5.764,4.018-10.121,10.121-10.121C749.783,334.155,752.373,335.199,754.08,337.228z"/>
	<path d="M768.857,334.155c4.578,0,7.811,3.152,7.811,7.65v12.089h-4.217v-10.703c0-3.232-1.646-5.04-4.479-5.04
		c-2.711,0-4.98,1.787-4.98,5.08v10.663h-4.217v-28.916h4.217v11.968C764.539,334.758,766.908,334.155,768.857,334.155z"/>
	<path d="M798.953,353.895h-4.539v-28.113h10.904c6.486,0,9.959,3.273,9.959,8.535c0,5.261-3.473,8.534-9.959,8.534h-6.365V353.895z
		 M798.953,338.573h6.244c3.695,0,5.361-1.346,5.361-4.257c0-2.912-1.666-4.258-5.361-4.258h-6.244V338.573z"/>
	<path d="M833.447,334.697l-1.004,4.157c-0.883-0.462-2.168-0.703-3.193-0.703c-2.67,0-4.578,1.867-4.578,5.161v10.582h-4.197
		v-19.237h4.158v2.169c1.285-1.848,3.232-2.671,5.582-2.671C831.5,334.155,832.484,334.316,833.447,334.697z"/>
	<path d="M856.236,344.276c0,5.763-4.416,10.12-10.361,10.12c-5.943,0-10.342-4.357-10.342-10.12
		c0-5.764,4.398-10.121,10.342-10.121C851.82,334.155,856.236,338.513,856.236,344.276z M839.851,344.276
		c0,3.634,2.59,6.164,6.023,6.164s6.045-2.53,6.045-6.164c0-3.635-2.611-6.165-6.045-6.165S839.851,340.642,839.851,344.276z"/>
	<path d="M877.359,337.228l-2.691,2.872c-1.365-1.285-2.771-1.988-4.617-1.988c-3.234,0-5.684,2.53-5.684,6.165
		c0,3.634,2.449,6.164,5.684,6.164c1.846,0,3.492-0.863,4.719-2.008l2.59,2.892c-1.768,2.028-4.297,3.072-7.189,3.072
		c-6.104,0-10.121-4.357-10.121-10.12c0-5.764,4.018-10.121,10.121-10.121C873.062,334.155,875.652,335.199,877.359,337.228z"/>
	<path d="M898.943,344.256c0,0.542-0.02,1.084-0.08,1.566h-14.217c0.541,3.454,3.012,4.899,5.723,4.899
		c1.928,0,3.955-0.743,5.562-2.028l2.088,2.992c-2.35,2.008-5,2.711-7.912,2.711c-5.783,0-9.84-4.016-9.84-10.12
		c0-6.024,3.916-10.121,9.58-10.121C895.208,334.155,898.943,338.252,898.943,344.256z M884.666,342.629h9.98
		c-0.463-2.991-2.209-4.738-4.881-4.738C886.775,337.891,885.087,339.818,884.666,342.629z"/>
	<path d="M911.291,337.83c-2.309,0-3.635,0.924-3.635,2.289s1.406,1.727,3.174,1.988l1.986,0.301
		c4.197,0.623,6.688,2.39,6.688,5.683c0,3.695-3.213,6.286-8.756,6.286c-1.967,0-5.461-0.382-8.252-2.471l1.947-3.152
		c1.365,1.064,3.232,1.968,6.346,1.968c2.891,0,4.377-0.903,4.377-2.35c0-1.104-1.023-1.807-3.332-2.128l-2.01-0.262
		c-4.275-0.582-6.525-2.529-6.525-5.643c0-3.795,3.053-6.164,7.951-6.164c3.033,0,5.783,0.742,7.793,2.027l-1.809,3.273
		C916.07,338.773,913.701,337.83,911.291,337.83z"/>
	<path d="M931.589,337.83c-2.309,0-3.635,0.924-3.635,2.289s1.406,1.727,3.174,1.988l1.986,0.301
		c4.197,0.623,6.688,2.39,6.688,5.683c0,3.695-3.213,6.286-8.756,6.286c-1.967,0-5.461-0.382-8.252-2.471l1.947-3.152
		c1.365,1.064,3.232,1.968,6.346,1.968c2.891,0,4.377-0.903,4.377-2.35c0-1.104-1.023-1.807-3.332-2.128l-2.01-0.262
		c-4.275-0.582-6.525-2.529-6.525-5.643c0-3.795,3.053-6.164,7.951-6.164c3.033,0,5.783,0.742,7.793,2.027l-1.809,3.273
		C936.369,338.773,934,337.83,931.589,337.83z"/>
	<path d="M949.8,328.011c0,1.687-1.307,2.932-2.973,2.932c-1.688,0-2.932-1.245-2.932-2.932c0-1.667,1.244-2.972,2.932-2.972
		C948.494,325.039,949.8,326.344,949.8,328.011z M944.74,353.895v-19.237h4.217v19.237H944.74z"/>
	<path d="M973.433,341.806v12.089h-4.217v-10.703c0-3.232-1.646-5.04-4.479-5.04c-2.711,0-4.98,1.787-4.98,5.08v10.663h-4.217
		v-19.237h4.178v2.35c1.547-2.249,3.936-2.852,5.904-2.852C970.201,334.155,973.433,337.308,973.433,341.806z"/>
	<path d="M993.753,336.967v-2.31h4.217v17.892c0,6.045-3.896,9.76-10.322,9.76c-2.891,0-6.023-0.783-8.053-2.229l1.527-3.554
		c1.947,1.204,4.176,1.947,6.525,1.947c3.955,0,6.105-2.148,6.105-5.743v-1.546c-1.447,1.848-3.596,2.812-6.406,2.812
		c-4.398,0-8.916-3.695-8.916-9.92s4.518-9.92,8.916-9.92C990.158,334.155,992.306,335.119,993.753,336.967z M982.748,344.075
		c0,3.213,2.15,5.964,5.684,5.964c3.395,0,5.684-2.591,5.684-5.964c0-3.374-2.289-5.964-5.684-5.964
		C984.898,338.111,982.748,340.802,982.748,344.075z"/>
	<path d="M1015.917,353.895v-28.113h4.537v23.816h15.562v4.297H1015.917z"/>
	<path d="M1054.347,353.895v-2.31c-1.346,1.707-3.293,2.812-6.043,2.812c-5.383,0-9.619-4.237-9.619-10.12
		c0-5.884,4.236-10.121,9.619-10.121c2.75,0,4.697,1.125,6.043,2.831v-2.329h4.197v19.237H1054.347z M1043.001,344.276
		c0,3.373,2.189,6.164,5.805,6.164c3.453,0,5.803-2.65,5.803-6.164c0-3.515-2.35-6.165-5.803-6.165
		C1045.191,338.111,1043.001,340.902,1043.001,344.276z"/>
	<path d="M1084.968,344.276c0,5.883-4.238,10.12-9.619,10.12c-2.752,0-4.68-1.104-6.023-2.791v2.289h-4.197v-28.916h4.197v11.968
		c1.344-1.687,3.271-2.791,6.023-2.791C1080.73,334.155,1084.968,338.393,1084.968,344.276z M1069.044,344.276
		c0,3.514,2.35,6.164,5.803,6.164c3.615,0,5.803-2.791,5.803-6.164c0-3.374-2.188-6.165-5.803-6.165
		C1071.394,338.111,1069.044,340.762,1069.044,344.276z"/>
</g>
</svg>
