<?xml version="1.0" encoding="UTF-8" standalone="no"?>
<!-- Created with Inkscape (http://www.inkscape.org/) -->

<svg
   xmlns:dc="http://purl.org/dc/elements/1.1/"
   xmlns:cc="http://creativecommons.org/ns#"
   xmlns:rdf="http://www.w3.org/1999/02/22-rdf-syntax-ns#"
   xmlns:svg="http://www.w3.org/2000/svg"
   xmlns="http://www.w3.org/2000/svg"
   xmlns:sodipodi="http://sodipodi.sourceforge.net/DTD/sodipodi-0.dtd"
   xmlns:inkscape="http://www.inkscape.org/namespaces/inkscape"
   width="368.43588mm"
   height="351.3772mm"
   viewBox="0 0 1305.4815 1245.0373"
   id="svg2"
   version="1.1"
   inkscape:version="0.91 r13725"
   sodipodi:docname="rs-logo.svg">
  <defs
     id="defs4" />
  <sodipodi:namedview
     id="base"
     pagecolor="#ffffff"
     bordercolor="#666666"
     borderopacity="1.0"
     inkscape:pageopacity="0.0"
     inkscape:pageshadow="2"
     inkscape:zoom="0.38"
     inkscape:cx="718.13274"
     inkscape:cy="697.15234"
     inkscape:document-units="px"
     inkscape:current-layer="layer1"
     showgrid="false"
     fit-margin-top="0"
     fit-margin-left="0"
     fit-margin-right="0"
     fit-margin-bottom="0"
     inkscape:window-width="1366"
     inkscape:window-height="692"
     inkscape:window-x="0"
     inkscape:window-y="25"
     inkscape:window-maximized="1" />
  <metadata
     id="metadata7">
    <rdf:RDF>
      <cc:Work
         rdf:about="">
        <dc:format>image/svg+xml</dc:format>
        <dc:type
           rdf:resource="http://purl.org/dc/dcmitype/StillImage" />
        <dc:title></dc:title>
      </cc:Work>
    </rdf:RDF>
  </metadata>
  <g
     inkscape:label="Layer 1"
     inkscape:groupmode="layer"
     id="layer1"
     transform="translate(62.106515,-257.72578)">
    <g
       style="font-style:normal;font-weight:normal;font-size:320px;line-height:125%;font-family:sans-serif;letter-spacing:0px;word-spacing:0px;fill:#ffffff;fill-opacity:1;stroke:none;stroke-width:1px;stroke-linecap:butt;stroke-linejoin:miter;stroke-opacity:1"
       id="text4445">
      <path
         id="path4994"
         style=""
         d="m 619.78329,794.99347 0,27.1875 q -12.1875,-6.25 -25.3125,-9.375 -13.125,-3.125 -27.1875,-3.125 -21.40625,0 -32.1875,6.5625 -10.625,6.5625 -10.625,19.6875 0,10 7.65625,15.78125 7.65625,5.625 30.78125,10.78125 l 9.84375,2.1875 q 30.625,6.5625 43.4375,18.59375 12.96875,11.875 12.96875,33.28125 0,24.375 -19.375,38.59375 -19.21875,14.21875 -52.96875,14.21875 -14.0625,0 -29.375,-2.8125 -15.15625,-2.65625 -32.03125,-8.125 l 0,-29.6875 q 15.9375,8.28125 31.40625,12.5 15.46875,4.0625 30.625,4.0625 20.3125,0 31.25,-6.875 10.9375,-7.03125 10.9375,-19.6875 0,-11.71875 -7.96875,-17.96875 -7.8125,-6.25 -34.53125,-12.03125 l -10,-2.34375 q -26.71875,-5.625 -38.59375,-17.1875 -11.875,-11.71875 -11.875,-32.03125 0,-24.6875 17.5,-38.125 17.5,-13.4375 49.6875,-13.4375 15.9375,0 30,2.34375 14.0625,2.34375 25.9375,7.03125 z m -142.03125,21.71875 q -4.84375,-2.8125 -10.625,-4.0625 -5.625,-1.40625 -12.5,-1.40625 -24.375,0 -37.5,15.9375 -12.96875,15.78125 -12.96875,45.46875 l 0,92.1875 -28.90625,0 0,-175 28.90625,0 0,27.1875 q 9.0625,-15.9375 23.59375,-23.59375 14.53125,-7.8125 35.3125,-7.8125 2.96875,0 6.5625,0.46875 3.59375,0.3125 7.96875,1.09375 l 0.15625,29.53125 z m 542.51166,264.26238 c -16.1099,0 -29.49022,13.3822 -29.49026,29.4922 -7e-5,16.11 13.38026,29.4922 29.49026,29.4922 16.11,0 29.4922,-13.3822 29.4922,-29.4922 -1e-4,-16.11 -13.3823,-29.4922 -29.4922,-29.4922 z m 0,28.9844 c 0.1031,0 0.5097,0.4045 0.5097,0.5078 0,0.1033 -0.4066,0.5078 -0.5097,0.5078 -0.1032,0 -0.5078,-0.4045 -0.5078,-0.5078 0,-0.1033 0.4046,-0.5078 0.5078,-0.5078 z m 185.1855,-258.6133 c -16.11,-9e-5 -29.4922,13.38018 -29.4922,29.49024 0,16.11005 13.3822,29.49228 29.4922,29.49218 16.11,-10e-6 29.4903,-13.3822 29.4903,-29.49218 0,-16.10998 -13.3803,-29.49022 -29.4903,-29.49024 z m 0,28.98242 c 0.1032,0 0.5078,0.40452 0.5078,0.50782 0,0.10329 -0.4046,0.50976 -0.5078,0.50976 -0.1032,0 -0.5097,-0.40646 -0.5097,-0.50976 0,-0.1033 0.4065,-0.50781 0.5097,-0.50782 z M 1101.7461,362.45703 c -16.1099,2e-5 -29.4922,13.38026 -29.4922,29.49024 0,16.10998 13.3823,29.49217 29.4922,29.49218 16.11,10e-5 29.4902,-13.38213 29.4902,-29.49218 0,-16.11006 -13.3802,-29.49033 -29.4902,-29.49024 z m 0,28.98242 c 0.1032,0 0.5078,0.40452 0.5078,0.50782 0,0.1033 -0.4046,0.50976 -0.5078,0.50976 -0.1032,0 -0.5098,-0.40647 -0.5098,-0.50976 0,-0.1033 0.4066,-0.50782 0.5098,-0.50782 z M 746.18945,984.67773 c -16.10994,0 -29.49218,13.3822 -29.49218,29.49217 -7e-5,16.1101 13.38219,29.4903 29.49218,29.4903 16.11,0 29.49226,-13.3802 29.49219,-29.4903 -10e-6,-16.10997 -13.38224,-29.49217 -29.49219,-29.49217 z m 0,28.98247 c 0.10317,0 0.50782,0.4064 0.50782,0.5097 0,0.1033 -0.40465,0.5078 -0.50782,0.5078 -0.10317,0 -0.50781,-0.4045 -0.50781,-0.5078 0,-0.1033 0.40464,-0.5097 0.50781,-0.5097 z m 7.40821,-310.46293 c -16.10995,-10e-6 -29.49218,13.38024 -29.49219,29.49023 0,16.10999 13.38223,29.49219 29.49219,29.49219 16.10994,-1e-5 29.49023,-13.3822 29.49023,-29.49219 -10e-6,-16.10998 -13.3803,-29.49023 -29.49023,-29.49023 z m 0,28.98242 c 0.10317,0 0.50781,0.40451 0.50781,0.50781 0,0.1033 -0.40464,0.50977 -0.50781,0.50977 -0.10318,0 -0.50977,-0.40647 -0.50977,-0.50977 0,-0.1033 0.40659,-0.50781 0.50977,-0.50781 z M 490.63477,566.16016 c -16.10996,-10e-6 -29.49219,13.38219 -29.49219,29.49218 0,16.11 13.38223,29.49024 29.49219,29.49024 16.10994,-10e-6 29.49023,-13.38025 29.49023,-29.49024 0,-16.10998 -13.38029,-29.49218 -29.49023,-29.49218 z m 0,28.98242 c 0.10317,0 0.50781,0.40647 0.50781,0.50976 0,0.1033 -0.40464,0.50782 -0.50781,0.50782 -0.10318,0 -0.50977,-0.40452 -0.50977,-0.50782 0,-0.1033 0.40659,-0.50976 0.50977,-0.50976 z m 0,-328.98242 c -16.10995,-1e-5 -29.49218,13.3822 -29.49219,29.49218 0,16.11 13.38223,29.49024 29.49219,29.49024 16.10994,-1e-5 29.49023,-13.38025 29.49023,-29.49024 -10e-6,-16.10998 -13.3803,-29.49218 -29.49023,-29.49218 z m 0,28.98242 c 0.10317,0 0.50781,0.40647 0.50781,0.50976 0,0.1033 -0.40464,0.50782 -0.50781,0.50782 -0.10318,0 -0.50977,-0.40452 -0.50977,-0.50782 0,-0.1033 0.40659,-0.50976 0.50977,-0.50976 z M -20.476562,558.75195 c -16.109948,0 -29.49219,13.3822 -29.492188,29.49219 9e-6,16.10998 13.382247,29.49024 29.492188,29.49024 16.1099397,0 29.490225,-13.38026 29.4902339,-29.49024 2.2e-6,-16.10999 -13.3802867,-29.49219 -29.4902339,-29.49219 z m 0,28.98243 c 0.103171,0 0.507812,0.40646 0.507812,0.50976 0,0.1033 -0.404641,0.50781 -0.507812,0.50781 -0.103172,0 -0.509766,-0.40451 -0.509766,-0.50781 0,-0.1033 0.406594,-0.50977 0.509766,-0.50976 z M 238.7832,699.49414 c -16.10995,0 -29.49219,13.38024 -29.49218,29.49024 -1e-5,16.10999 13.38223,29.49219 29.49218,29.49218 16.10995,0 29.49024,-13.3822 29.49024,-29.49218 0,-16.10999 -13.38029,-29.49023 -29.49024,-29.49024 z m 0,28.98242 c 0.10317,0 0.50782,0.40452 0.50782,0.50782 0,0.10329 -0.40465,0.50976 -0.50782,0.50976 -0.10317,0 -0.50976,-0.40647 -0.50976,-0.50976 0,-0.1033 0.40659,-0.50782 0.50976,-0.50782 z M -24.179688,1140.2344 c -16.109917,0 -29.492144,13.3802 -29.492187,29.4902 -6.8e-5,16.11 13.382195,29.4922 29.492187,29.4922 16.1099933,0 29.4903027,-13.3822 29.4902349,-29.4922 -4.34e-5,-16.11 -13.3803173,-29.4902 -29.4902349,-29.4902 z m 0,28.9824 c 0.103171,0 0.507813,0.4065 0.507813,0.5098 0,0.1033 -0.40464,0.5078 -0.507813,0.5078 -0.103172,0 -0.509765,-0.4045 -0.509765,-0.5078 -1e-6,-0.1033 0.406595,-0.5098 0.509765,-0.5098 z M 242.48633,980.97461 c -16.10991,0 -29.49213,13.38224 -29.49219,29.49219 -7e-5,16.11 13.3822,29.4902 29.49219,29.4902 16.10999,0 29.4903,-13.3802 29.49023,-29.4902 -5e-5,-16.10995 -13.38033,-29.49219 -29.49023,-29.49219 z m 0,28.98239 c 0.10317,0 0.50781,0.4065 0.50781,0.5098 0,0.1033 -0.40464,0.5078 -0.50781,0.5078 -0.10317,0 -0.50977,-0.4045 -0.50977,-0.5078 0,-0.1033 0.4066,-0.5098 0.50977,-0.5098 z m 244.44531,119.166 c -16.10992,0 -29.49214,13.3823 -29.49219,29.4922 -7e-5,16.1101 13.38219,29.4903 29.49219,29.4903 16.10999,0 29.4903,-13.3802 29.49024,-29.4903 -5e-5,-16.1099 -13.38033,-29.4921 -29.49024,-29.4922 z m 0,28.9825 c 0.10317,0 0.50781,0.4064 0.50781,0.5097 0,0.1033 -0.40464,0.5078 -0.50781,0.5078 -0.10317,0 -0.50976,-0.4045 -0.50976,-0.5078 -10e-6,-0.1033 0.40659,-0.5097 0.50976,-0.5097 z m -1.60352,277.2402 c -16.10999,0 -29.4903,13.3822 -29.49023,29.4922 a 15.0015,15.0015 0 0 0 0.31055,3.0293 c 1.56812,14.7054 14.10498,26.4609 29.17968,26.4609 16.10993,0 29.49215,-13.3802 29.49219,-29.4902 7e-5,-16.11 -13.38219,-29.4922 -29.49219,-29.4922 z m 0,28.9824 0.50977,0.5098 c 0,0.1033 -0.4066,0.5078 -0.50977,0.5078 -0.10316,0 -0.50781,-0.4045 -0.50781,-0.5078 0,-0.1033 0.40464,-0.5098 0.50781,-0.5098 z m 609.72458,-1090.77537 -85.2265,271.91016 21.5215,6.74609 85.2265,-271.91015 -21.5215,-6.7461 z M 1.1855469,585.56055 -9.8867188,605.20898 238.36133,745.10742 249.43359,725.45703 1.1855469,585.56055 Z M 234.43945,1010.1484 c -74.61587,0.6822 -197.329578,45.2577 -261.414059,148.4883 l 16.195312,16.7207 0.289063,-0.166 c 121.351554,-3.9697 221.225924,-87.8923 259.103514,-152.1348 l -14.13281,-8.332 -0.041,-4.5762 z m -24.52539,25.9942 C 170.15078,1084.6214 95.063473,1139.6279 8.7402344,1149.6973 62.698125,1080.8766 149.11292,1044.5887 209.91406,1036.1426 Z m 284.28516,113.4941 -14.28125,8.0723 -3.98438,-2.252 c -36.71674,64.9603 -59.46928,193.5207 -2.11132,300.6348 l 22.57812,-5.6641 0,-0.3359 c 57.23644,-107.0781 34.49506,-235.5311 -2.20117,-300.4551 z m -8.01758,40.0567 c 22.10231,58.675 32.19628,151.2049 -2.24414,230.998 -32.62113,-81.139 -20.84161,-174.1197 2.24414,-230.998 z m 12.01758,-895.37895 -14.2832,8.07227 -3.98438,-2.25195 c -36.71673,64.96034 -59.46927,193.52257 -2.11133,300.63671 l 22.57813,-5.66406 0,-0.33789 c 57.23643,-107.07814 34.49699,-235.53104 -2.19922,-300.45508 z m -8.01758,40.06055 c 22.10119,58.67507 32.1951,151.20306 -2.24414,230.99414 -32.62003,-81.13739 -20.8407,-174.11572 2.24414,-230.99414 z m 705.62696,538.55273 c -68.313,30.02173 -163.5437,119.33441 -181.7793,239.46287 l 21.4707,8.9922 0.2051,-0.2734 c 109.9717,-51.4557 168.7081,-167.93217 178.2148,-241.90042 l -16.2695,-2.08984 -1.8418,-4.19141 z m -12.3047,33.55469 c -17.4503,60.22307 -64.794,140.36148 -140.1699,183.62308 22.4829,-84.5114 87.6128,-151.90708 140.1699,-183.62308 z m -427.28906,-183.57617 -14.28125,8.07227 -3.98437,-2.25196 c -36.71673,64.96034 -59.47123,193.52058 -2.11328,300.63474 l 22.58008,-5.664 0,-0.3399 c 57.2338,-107.07744 34.4946,-235.52789 -2.20118,-300.45115 z m -8.01757,40.05664 c 22.10233,58.67547 32.197,151.20477 -2.24415,230.99805 -32.62122,-81.13918 -20.84163,-174.11962 2.24415,-230.99805 z M 491.85352,577.35352 a 12.0012,12.0012 0 0 0 -6.08985,1.5996 L 230.59961,725.83594 a 12.0012,12.0012 0 0 0 -6.01367,10.41797 l 0.4082,276.12309 a 12.0012,12.0012 0 0 0 5.67188,10.1777 l 250.34375,155.3848 a 12.0012,12.0012 0 0 0 12.52734,0.078 l 254.5625,-153.5567 272.35549,100.3594 a 12.0012,12.0012 0 1 0 8.2988,-22.5195 L 750.98633,999.94727 a 12.0012,12.0012 0 0 0 -10.34571,0.98633 L 487.42773,1153.6758 248.98438,1005.6777 248.59766,743.16797 491.8457,603.14453 743.91797,743.64844 a 12.0012,12.0012 0 0 0 9.59375,0.91601 l 267.34768,-87.98437 166.0332,226.67383 a 12.0012,12.0012 0 1 0 19.3613,-14.18164 L 1035.0684,635.36523 a 12.0012,12.0012 0 0 0 -13.4317,-4.30859 L 751.00781,720.12305 497.59375,578.87109 a 12.0012,12.0012 0 0 0 -5.74023,-1.51757 z" />
    </g>
  </g>
</svg>
