<?xml version="1.0" encoding="UTF-8" standalone="no"?>
<!-- Generator: Adobe Illustrator 19.2.1, SVG Export Plug-In . SVG Version: 6.00 Build 0)  -->

<svg
   xmlns:dc="http://purl.org/dc/elements/1.1/"
   xmlns:cc="http://creativecommons.org/ns#"
   xmlns:rdf="http://www.w3.org/1999/02/22-rdf-syntax-ns#"
   xmlns:svg="http://www.w3.org/2000/svg"
   xmlns="http://www.w3.org/2000/svg"
   xmlns:sodipodi="http://sodipodi.sourceforge.net/DTD/sodipodi-0.dtd"
   xmlns:inkscape="http://www.inkscape.org/namespaces/inkscape"
   version="1.1"
   id="Layer_1"
   x="0px"
   y="0px"
   viewBox="0 0 102.5 91"
   style="enable-background:new 0 0 102.5 91;"
   xml:space="preserve"
   inkscape:version="0.91 r13725"
   sodipodi:docname="Logo_Black.svg"><metadata
     id="metadata33"><rdf:RDF><cc:Work
         rdf:about=""><dc:format>image/svg+xml</dc:format><dc:type
           rdf:resource="http://purl.org/dc/dcmitype/StillImage" /><dc:title></dc:title></cc:Work></rdf:RDF></metadata><defs
     id="defs31" /><sodipodi:namedview
     pagecolor="#ffffff"
     bordercolor="#666666"
     borderopacity="1"
     objecttolerance="10"
     gridtolerance="10"
     guidetolerance="10"
     inkscape:pageopacity="0"
     inkscape:pageshadow="2"
     inkscape:window-width="678"
     inkscape:window-height="480"
     id="namedview29"
     showgrid="false"
     inkscape:zoom="2.5934066"
     inkscape:cx="51.25"
     inkscape:cy="45.5"
     inkscape:window-x="0"
     inkscape:window-y="31"
     inkscape:window-maximized="0"
     inkscape:current-layer="Layer_1" /><style
     type="text/css"
     id="style3">
	.st0{fill:#FFFFFF;}
</style><path
     class="st0"
     d="M16.6,53.5c0,1.2-0.3,2.2-0.9,3c-0.6,0.8-1.4,1.5-2.5,1.9c-1.1,0.4-2.5,0.6-4.1,0.6c-1.5,0-2.8-0.2-3.9-0.7  s-1.9-1.1-2.4-1.8C2.2,55.9,2,55.2,2,54.5c0-0.5,0.2-0.9,0.5-1.2c0.3-0.3,0.8-0.5,1.3-0.5c0.4,0,0.8,0.1,1,0.3  c0.2,0.2,0.5,0.5,0.7,0.9c0.4,0.8,1,1.3,1.6,1.7s1.4,0.6,2.5,0.6c0.9,0,1.6-0.2,2.1-0.6c0.5-0.4,0.8-0.8,0.8-1.3  c0-0.8-0.3-1.3-0.9-1.6c-0.6-0.3-1.5-0.7-2.8-1c-1.5-0.4-2.7-0.7-3.6-1.1c-0.9-0.4-1.7-0.9-2.2-1.6c-0.6-0.7-0.8-1.5-0.8-2.4  c0-0.9,0.3-1.7,0.8-2.4c0.5-0.8,1.3-1.4,2.3-1.8c1-0.5,2.2-0.7,3.6-0.7c1.1,0,2.1,0.1,3,0.3c0.9,0.2,1.6,0.5,2.2,0.9  c0.6,0.4,1,0.8,1.3,1.3c0.3,0.5,0.5,0.9,0.5,1.4c0,0.5-0.2,0.9-0.5,1.2s-0.8,0.5-1.4,0.5c-0.4,0-0.8-0.1-1.1-0.4  c-0.3-0.3-0.7-0.6-1.1-1.1c-0.3-0.4-0.7-0.8-1.1-1s-1-0.4-1.8-0.4c-0.8,0-1.4,0.2-1.9,0.5c-0.5,0.3-0.8,0.7-0.8,1.2  c0,0.4,0.2,0.8,0.6,1.1C7,47.6,7.5,47.8,8.2,48c0.6,0.2,1.5,0.4,2.6,0.7c1.3,0.3,2.4,0.7,3.2,1.2c0.8,0.4,1.5,1,1.9,1.6  C16.4,52.1,16.6,52.7,16.6,53.5z"
     id="path5"
     style="fill:#000000" /><path
     class="st0"
     d="M24.1,44.2v0.5c0.8-1,1.6-1.7,2.5-2.2c0.9-0.5,1.8-0.7,2.9-0.7c1.3,0,2.5,0.3,3.6,1c1.1,0.7,2,1.7,2.6,3  c0.6,1.3,1,2.8,1,4.6c0,1.3-0.2,2.5-0.6,3.6c-0.4,1.1-0.9,2-1.5,2.8c-0.6,0.7-1.4,1.3-2.3,1.7c-0.9,0.4-1.8,0.6-2.8,0.6  c-1.2,0-2.2-0.2-3.1-0.7s-1.6-1.2-2.4-2.2v6.4c0,1.9-0.7,2.8-2,2.8c-0.8,0-1.3-0.2-1.6-0.7c-0.3-0.5-0.4-1.2-0.4-2.1V44.2  c0-0.8,0.2-1.4,0.5-1.8c0.4-0.4,0.8-0.6,1.5-0.6c0.6,0,1.1,0.2,1.5,0.6C23.9,42.8,24.1,43.4,24.1,44.2z M32.5,50.4  c0-1.1-0.2-2.1-0.5-2.9c-0.3-0.8-0.8-1.4-1.4-1.9c-0.6-0.4-1.3-0.6-2-0.6c-1.2,0-2.2,0.5-3,1.4c-0.8,0.9-1.2,2.3-1.2,4.1  c0,1.7,0.4,3,1.2,4c0.8,0.9,1.8,1.4,3,1.4c0.7,0,1.4-0.2,2-0.6c0.6-0.4,1.1-1,1.5-1.9C32.3,52.5,32.5,51.5,32.5,50.4z"
     id="path7"
     style="fill:#000000" /><g
     id="g9"
     style="fill:#000000"><path
       class="st0"
       d="M48.1,37.7c-0.4,0.1-0.7,0.3-0.9,0.7c-0.3,0.6-0.5,1.4-0.5,2.3c0,1.4,0.3,3.2,1,5.2c0.2,0.6,0.3,1.1,0.5,1.7   c0.1-0.5,0.3-1.1,0.5-1.7c0.6-2,1-3.8,1-5.2c0-0.9-0.2-1.7-0.5-2.3C48.8,38,48.5,37.7,48.1,37.7z"
       id="path11"
       style="fill:#000000" /><path
       class="st0"
       d="M40.5,85.3c-1.3-0.5-1.6,1.8-1.3,2.7C40.4,91.3,43.8,86.5,40.5,85.3z"
       id="path13"
       style="fill:#000000" /><path
       class="st0"
       d="M76.1,10.2c0.9-0.2,1.1-2.3,0-2.6c-0.6-0.1-1.8,1-1.9,1.7C74,10.2,75.5,10.4,76.1,10.2z"
       id="path15"
       style="fill:#000000" /><path
       class="st0"
       d="M78.7,5.9c0.3,0.2,0.7,0.1,1,0c0.3-0.2,0.6-0.4,0.9-0.7c0.6-0.5,2.1-0.6,2.3-1.6c0.2-0.8-0.5-1.7-1.1-2   c-1.3-0.8-3,0.3-3.6,2c-0.1,0.4-0.2,0.8-0.2,1.3C78.2,5.3,78.4,5.7,78.7,5.9z"
       id="path17"
       style="fill:#000000" /><path
       class="st0"
       d="M98.7,71c-0.7,1-1,2.3-0.2,3.1c0.8,0.8,2.1,0.3,2.7-0.7C102.6,70.8,100.6,68.2,98.7,71z"
       id="path19"
       style="fill:#000000" /><path
       class="st0"
       d="M81.1,85.3c-0.7-0.3-2.1,1.5-0.7,2.9c0.1,0.1,0.2,0.2,0.3,0.1c0.1,0,0.1-0.2,0.2-0.3   C81.6,86.3,81.5,85.5,81.1,85.3z"
       id="path21"
       style="fill:#000000" /><path
       class="st0"
       d="M96.9,49.9c1-0.7,2.3-0.8,3.1-1.6c1.3-1.3-0.1-4-2-3.8c-1.3,0.2-2.8,1.4-3.6,0.4c-0.5-0.6-0.1-1.6,0.4-2.2   c0.5-0.6,1.3-1.1,1.5-1.9c0.4-1.4-0.9-2.6-1.2-4c-0.3-1.4,0.4-2.9-0.2-4.1c-0.8-1.5-3.1-1.5-4-2.8c-1-1.3-0.2-3.3-0.9-4.8   c-0.5-1.2-1.9-1.8-3.1-2c-1.3-0.2-2.6,0-3.9,0c-0.8,0-1.7-0.2-2.1-0.9c-0.3-0.6,0-1.3,0.3-1.9c0.5-1,1-2.1,0.9-3.3   c-0.1-1.1-0.8-2.3-2-2.5c-1.3-0.2-2.4,1.1-2.9,2.4c-0.5,1.2-0.9,2.7-2,3.4c-0.9,0.6-2.3,0.6-3.2,0c-0.9-0.7-1.3-1.9-1-3   c0.3-1,1.2-2,0.7-2.9c-0.7-1.1-2.4-0.3-3.1,0.8c-1.3,1.9-1.9,4.5-3.7,6c-1.4,1.1-3.4,1.4-5.1,0.7c-1.2-0.5-2.2-1.5-3.2-2.4   c-1.1-1-2.7-2.2-4.3-1.7c-1.2,0.3-2.1,2.8-3.4,2.4c-0.6-0.2-0.8-0.9-1.2-1.5c-0.6-1.1-1.7-0.8-2.2,0.1c-0.3,0.7,0.2,2.2-0.7,2.5   c-0.3,0.1-0.6,0-0.8,0c-0.9,0.1-0.9,1.5-0.4,2.3s1.3,1.5,1.3,2.4c0,1.4-1.5,2.1-2.8,2.4c-1.3,0.3-2.9,0.9-2.9,2.3   c0,0.9,0.9,1.3,1.1,2.1c0.5,2-1.8,5.5-4.1,4.3c-1.4-0.7-2.1-2.3-3.6-2.6c-1.5-0.2-3.4,0.8-3.2,2.3c0.2,1.5,2,2.1,3.4,2.6   c4.1,1.6,6.5,5.6,6.9,9.8c0.2,2,0,4-0.7,5.8c-0.3,0.9-0.8,1.8-1.3,2.6c-0.8,1.2-2,2.1-2.1,3.7c-0.1,1.6,0.8,2.8,2.4,3.2   c0.4,0.1,1.1,0.1,1.5,0.3c0.9,0.4,1.1,1.4,1,2.3c-0.2,1.2-0.8,1.8-1.3,2.7c-0.1,0.3-0.2,0.6-0.1,0.9c0.3,0.8,1.3,0.9,2,0.7   c1.2-0.2,1.4-1.1,2.2-1.8c0.2-0.2,0.5-0.3,0.8-0.2c1.1,0.4,0.5,2,0.2,2.7c-0.8,1.4-1.7,2.8-2.3,4.3c-0.5,1.2-0.8,2.8,0.2,3.5   c1.1,0.7,2.5-0.3,3.4-1.2c1.3-1.3,2.6-2.6,4.4-3.1c1.7-0.5,4,0.2,4.6,1.9c0.4,1.2,0,2.6,0,3.8c0,1.3,1,2.8,2.3,2.5   c0.7-0.2,1.1-0.9,1.4-1.5c0.6-1.3,1-2.6,1.8-3.7c0.8-1.1,2.3-1.9,3.6-1.4c1.2,0.4,1.8,1.7,2.1,2.9s0.2,2.5,0.5,3.6   c0.2,0.6,0.5,1.3,1.1,1.5c0.8,0.3,1.7-0.4,2.2-1.1c0.8-1.3,1.1-2.8,2-4.1c0.8-1.2,2.6-2.1,3.8-1.2c0.8,0.6,1.2,1.8,2.2,1.9   c1.1,0.1,1.9-1.3,3-1.3c0.7,0,1.3,0.5,2,0.4c1-0.3,1-1.7,1.5-2.7c0.7-1.5,2.8-1.9,3.8-3.2c1.1-1.5,0.9-4.1,2.6-4.7   c0.8-0.3,1.6,0,2.4,0.1c0.8,0.1,1.8-0.2,1.9-1c0.1-0.4-0.1-0.7-0.2-1c-0.9-2-1.7-4-2.6-6.1c-0.3-0.6-0.5-1.3-0.3-2   c0.5-1.2,2.4-0.9,3.5-0.2c1.2,0.7,2.7,1.4,3.7,0.5c0.8-0.8,0.4-2.3-0.5-3.2c-0.8-0.9-1.9-1.5-2.4-2.6   C95.3,52.4,95.7,50.7,96.9,49.9z M52.9,56.6c0.3,0.4,0.4,0.9,0.3,1.4c-0.1,0.5-0.4,0.9-0.9,1.2c-0.3,0.2-0.6,0.3-1,0.3   c0,0,0,0-0.1,0c-0.7,0-1.3-0.3-1.6-0.8c-0.9-1.4-1.5-2.3-2-3.2c-0.7,1-1.5,2-2.5,3.3c-0.4,0.5-1,0.7-1.6,0.7   c-0.4,0-0.8-0.1-1.1-0.4c-0.4-0.3-0.7-0.7-0.8-1.2c-0.1-0.5,0.1-1,0.4-1.3c1.4-1.8,2.6-3.4,3.7-5.1c-0.3-0.7-0.5-1.4-0.9-2.3   c-1.3-3.5-2.7-8.6-1.3-12.4c0.7-1.7,2.2-2.8,4-2.9c1.9-0.1,3.7,0.9,4.6,2.6c2.3,4.4,0.5,9.4-1,12.8c-0.4,0.8-0.8,1.6-1.2,2.4   C50.7,53.3,51.5,54.5,52.9,56.6z M73.4,56.8c0,0.8-0.2,1.4-0.6,1.8s-0.9,0.6-1.5,0.6c-0.6,0-1.1-0.2-1.4-0.6   c-0.4-0.4-0.6-1-0.6-1.8v-0.4c-0.6,0.7-1.1,1.2-1.7,1.6c-0.6,0.4-1.2,0.7-1.8,0.9c-0.7,0.2-1.4,0.3-2.1,0.3c-1,0-2-0.2-2.8-0.6   c-0.9-0.4-1.6-1-2.3-1.9c-0.6-0.8-1.1-1.7-1.4-2.8c-0.3-1.1-0.5-2.3-0.5-3.5c0-2.7,0.7-4.7,2-6.2c1.3-1.5,3-2.2,5.1-2.2   c1.2,0,2.3,0.2,3.1,0.6s1.7,1.1,2.5,1.9v0c0-0.9,0.2-1.5,0.5-2c0.3-0.4,0.8-0.7,1.5-0.7c0.6,0,1.1,0.2,1.5,0.6   c0.3,0.4,0.5,1,0.5,1.8V56.8z M87.1,58.6c-0.8,0.4-1.8,0.5-3.2,0.5c-1.3,0-2.3-0.2-3-0.7s-1.1-1.1-1.4-1.9   c-0.2-0.8-0.3-1.8-0.3-3.2v-8.2h-0.6c-0.6,0-1.1-0.1-1.4-0.4c-0.3-0.3-0.5-0.7-0.5-1.1c0-0.4,0.2-0.8,0.5-1.1   c0.3-0.3,0.8-0.4,1.5-0.4h0.5v-2.6c0-0.7,0-1.2,0.1-1.6c0-0.4,0.1-0.7,0.3-1c0.2-0.3,0.4-0.5,0.7-0.7c0.3-0.2,0.7-0.3,1-0.3   c0.5,0,1,0.2,1.5,0.6c0.3,0.3,0.5,0.6,0.6,1s0.1,0.9,0.1,1.7v2.9H85c0.6,0,1.1,0.1,1.4,0.4c0.3,0.3,0.5,0.7,0.5,1.1   c0,0.6-0.2,1-0.7,1.2c-0.5,0.2-1.1,0.3-1.9,0.3h-0.8v7.8c0,0.7,0,1.2,0.1,1.5s0.2,0.7,0.4,0.9c0.2,0.2,0.5,0.3,1,0.3   c0.3,0,0.6,0,1-0.1c0.4-0.1,0.8-0.1,1-0.1c0.3,0,0.7,0.1,0.9,0.4c0.3,0.3,0.4,0.6,0.4,1C88.2,57.7,87.8,58.2,87.1,58.6z"
       id="path23"
       style="fill:#000000" /><path
       class="st0"
       d="M67,45.7c-0.6-0.4-1.3-0.6-2.1-0.6c-0.8,0-1.5,0.2-2.1,0.7c-0.6,0.4-1.1,1.1-1.4,1.9c-0.3,0.8-0.5,1.8-0.5,2.9   c0,1.2,0.2,2.1,0.5,3s0.9,1.4,1.5,1.8c0.6,0.4,1.3,0.6,2,0.6c0.8,0,1.4-0.2,2.1-0.6c0.6-0.4,1.1-1,1.5-1.8c0.4-0.8,0.6-1.8,0.6-3   c0-1.1-0.2-2.1-0.6-2.9C68.2,46.8,67.7,46.2,67,45.7z"
       id="path25"
       style="fill:#000000" /></g><path
     class="st0"
     d="M45.8,48.6"
     id="path27" /></svg>
