<?xml version="1.0" encoding="UTF-8" standalone="no"?>
<!-- Generator: Adobe Illustrator 19.2.1, SVG Export Plug-In . SVG Version: 6.00 Build 0)  -->

<svg
   xmlns:dc="http://purl.org/dc/elements/1.1/"
   xmlns:cc="http://creativecommons.org/ns#"
   xmlns:rdf="http://www.w3.org/1999/02/22-rdf-syntax-ns#"
   xmlns:svg="http://www.w3.org/2000/svg"
   xmlns="http://www.w3.org/2000/svg"
   xmlns:sodipodi="http://sodipodi.sourceforge.net/DTD/sodipodi-0.dtd"
   xmlns:inkscape="http://www.inkscape.org/namespaces/inkscape"
   version="1.1"
   id="Layer_1"
   x="0px"
   y="0px"
   viewBox="0 0 278.1 14.8"
   style="enable-background:new 0 0 278.1 14.8;"
   xml:space="preserve"
   inkscape:version="0.91 r13725"
   sodipodi:docname="Text_Black.svg"><metadata
     id="metadata93"><rdf:RDF><cc:Work
         rdf:about=""><dc:format>image/svg+xml</dc:format><dc:type
           rdf:resource="http://purl.org/dc/dcmitype/StillImage" /><dc:title></dc:title></cc:Work></rdf:RDF></metadata><defs
     id="defs91" /><sodipodi:namedview
     pagecolor="#ffffff"
     bordercolor="#666666"
     borderopacity="1"
     objecttolerance="10"
     gridtolerance="10"
     guidetolerance="10"
     inkscape:pageopacity="0"
     inkscape:pageshadow="2"
     inkscape:window-width="678"
     inkscape:window-height="480"
     id="namedview89"
     showgrid="false"
     inkscape:zoom="1.3412441"
     inkscape:cx="214.61587"
     inkscape:cy="7.4000001"
     inkscape:window-x="0"
     inkscape:window-y="31"
     inkscape:window-maximized="0"
     inkscape:current-layer="Layer_1" /><style
     type="text/css"
     id="style3">
	.st0{fill:#FFFFFF;}
</style><g
     id="g5"
     style="fill:#000000"><path
       class="st0"
       d="M7.6,8l-5.9,2.6V8.9l4.1-1.6L1.7,5.7V4l5.9,2.5V8z"
       id="path7"
       style="fill:#000000" /><path
       class="st0"
       d="M8.1,13v-1.5h6.1V13H8.1z"
       id="path9"
       style="fill:#000000" /><path
       class="st0"
       d="M21.6,8.9c0,0.5-0.1,1-0.4,1.4s-0.7,0.7-1.2,1s-1.1,0.4-1.8,0.4c-0.8,0-1.5-0.2-2.1-0.5   c-0.4-0.2-0.7-0.5-1-0.9s-0.4-0.8-0.4-1.1c0-0.2,0.1-0.4,0.2-0.5s0.3-0.2,0.6-0.2c0.2,0,0.3,0.1,0.5,0.2c0.1,0.1,0.2,0.3,0.3,0.5   c0.1,0.3,0.2,0.5,0.4,0.7s0.3,0.3,0.5,0.5s0.5,0.2,0.9,0.2c0.5,0,0.9-0.1,1.3-0.4s0.5-0.5,0.5-0.9c0-0.3-0.1-0.5-0.3-0.7   S19.2,8.1,18.9,8s-0.6-0.2-1.1-0.3c-0.6-0.1-1.1-0.3-1.5-0.5c-0.4-0.2-0.7-0.5-1-0.8s-0.4-0.7-0.4-1.2c0-0.5,0.1-0.9,0.4-1.3   s0.6-0.6,1.1-0.8c0.5-0.2,1.1-0.3,1.7-0.3c0.5,0,1,0.1,1.4,0.2s0.7,0.3,1,0.5s0.4,0.4,0.6,0.7c0.1,0.2,0.2,0.5,0.2,0.7   c0,0.2-0.1,0.4-0.2,0.6s-0.3,0.2-0.5,0.2c-0.2,0-0.4,0-0.5-0.1S19.8,5.3,19.7,5c-0.2-0.3-0.3-0.6-0.6-0.8S18.5,4,18,4   c-0.4,0-0.8,0.1-1.1,0.3S16.5,4.7,16.5,5c0,0.2,0,0.3,0.1,0.4s0.2,0.2,0.4,0.3s0.3,0.2,0.5,0.2s0.4,0.1,0.8,0.2   c0.5,0.1,0.9,0.2,1.3,0.4s0.7,0.3,1,0.5s0.5,0.4,0.6,0.7S21.6,8.5,21.6,8.9z"
       id="path11"
       style="fill:#000000" /><path
       class="st0"
       d="M24.4,6.1v0.2c0.3-0.4,0.6-0.6,0.9-0.8s0.7-0.3,1.1-0.3c0.5,0,0.9,0.1,1.4,0.4s0.7,0.6,1,1.1s0.4,1.1,0.4,1.7   c0,0.5-0.1,0.9-0.2,1.4s-0.3,0.8-0.6,1s-0.5,0.5-0.9,0.6s-0.7,0.2-1.1,0.2c-0.5,0-0.8-0.1-1.2-0.3s-0.6-0.5-0.9-0.8V13   c0,0.7-0.3,1.1-0.8,1.1c-0.3,0-0.5-0.1-0.6-0.3s-0.1-0.4-0.1-0.8V6.1c0-0.3,0.1-0.5,0.2-0.7s0.3-0.2,0.5-0.2c0.2,0,0.4,0.1,0.6,0.2   S24.4,5.8,24.4,6.1z M27.6,8.4c0-0.4-0.1-0.8-0.2-1.1s-0.3-0.5-0.5-0.7s-0.5-0.2-0.8-0.2c-0.4,0-0.8,0.2-1.1,0.5s-0.5,0.9-0.5,1.5   c0,0.6,0.2,1.1,0.5,1.5s0.7,0.5,1.1,0.5c0.3,0,0.5-0.1,0.7-0.2s0.4-0.4,0.5-0.7S27.6,8.8,27.6,8.4z"
       id="path13"
       style="fill:#000000" /><path
       class="st0"
       d="M34.9,8.8h-3.1c0,0.4,0.1,0.7,0.2,1s0.3,0.5,0.6,0.6s0.5,0.2,0.8,0.2c0.2,0,0.4,0,0.5-0.1s0.3-0.1,0.5-0.2   s0.3-0.2,0.4-0.3s0.3-0.3,0.5-0.4c0.1-0.1,0.2-0.1,0.4-0.1c0.2,0,0.3,0,0.4,0.1s0.2,0.2,0.2,0.4c0,0.1-0.1,0.3-0.2,0.5   s-0.3,0.4-0.5,0.6s-0.5,0.3-0.9,0.4s-0.7,0.2-1.2,0.2c-1,0-1.8-0.3-2.4-0.9s-0.9-1.4-0.9-2.4c0-0.5,0.1-0.9,0.2-1.3s0.3-0.8,0.6-1   s0.6-0.5,1-0.7s0.8-0.2,1.3-0.2c0.6,0,1.2,0.1,1.6,0.4s0.8,0.6,1,1s0.3,0.8,0.3,1.3c0,0.4-0.1,0.7-0.3,0.8S35.3,8.8,34.9,8.8z    M31.8,7.9h2.9c0-0.5-0.2-1-0.4-1.2s-0.6-0.4-1-0.4c-0.4,0-0.7,0.1-1,0.4S31.8,7.4,31.8,7.9z"
       id="path15"
       style="fill:#000000" /><path
       class="st0"
       d="M42,8.8h-3.1c0,0.4,0.1,0.7,0.2,1s0.3,0.5,0.6,0.6s0.5,0.2,0.8,0.2c0.2,0,0.4,0,0.5-0.1s0.3-0.1,0.5-0.2   s0.3-0.2,0.4-0.3s0.3-0.3,0.5-0.4c0.1-0.1,0.2-0.1,0.4-0.1c0.2,0,0.3,0,0.4,0.1s0.2,0.2,0.2,0.4c0,0.1-0.1,0.3-0.2,0.5   s-0.3,0.4-0.5,0.6s-0.5,0.3-0.9,0.4s-0.7,0.2-1.2,0.2c-1,0-1.8-0.3-2.4-0.9s-0.9-1.4-0.9-2.4c0-0.5,0.1-0.9,0.2-1.3s0.3-0.8,0.6-1   s0.6-0.5,1-0.7s0.8-0.2,1.3-0.2c0.6,0,1.2,0.1,1.6,0.4s0.8,0.6,1,1s0.3,0.8,0.3,1.3c0,0.4-0.1,0.7-0.3,0.8S42.5,8.8,42,8.8z    M38.9,7.9h2.9c0-0.5-0.2-1-0.4-1.2s-0.6-0.4-1-0.4c-0.4,0-0.7,0.1-1,0.4S39,7.4,38.9,7.9z"
       id="path17"
       style="fill:#000000" /><path
       class="st0"
       d="M50.5,9.7c0,0.2-0.1,0.4-0.2,0.6S50,10.8,49.7,11s-0.6,0.4-0.9,0.5s-0.8,0.2-1.3,0.2c-1,0-1.8-0.3-2.3-0.9   s-0.8-1.3-0.8-2.3c0-0.7,0.1-1.2,0.4-1.7s0.6-0.9,1.1-1.2s1.1-0.4,1.7-0.4c0.4,0,0.8,0.1,1.1,0.2s0.6,0.3,0.9,0.5s0.4,0.4,0.6,0.6   s0.2,0.4,0.2,0.6c0,0.2-0.1,0.4-0.2,0.5s-0.3,0.2-0.5,0.2c-0.1,0-0.2,0-0.3-0.1S49.1,7.4,49,7.3c-0.2-0.3-0.4-0.5-0.6-0.7   s-0.5-0.2-0.8-0.2c-0.5,0-0.9,0.2-1.1,0.6S46,7.8,46,8.4c0,0.3,0,0.6,0.1,0.8s0.2,0.5,0.3,0.6s0.3,0.3,0.5,0.4s0.4,0.1,0.7,0.1   c0.3,0,0.6-0.1,0.8-0.2s0.4-0.4,0.6-0.7c0.1-0.2,0.2-0.3,0.3-0.4S49.6,9,49.8,9c0.2,0,0.4,0.1,0.5,0.2S50.5,9.5,50.5,9.7z"
       id="path19"
       style="fill:#000000" /><path
       class="st0"
       d="M53.1,3.7v2.4c0.2-0.2,0.4-0.4,0.6-0.6s0.4-0.2,0.6-0.3s0.5-0.1,0.8-0.1c0.4,0,0.8,0.1,1.1,0.3   s0.6,0.4,0.7,0.8c0.1,0.2,0.2,0.4,0.2,0.6s0.1,0.5,0.1,0.8v3.1c0,0.3-0.1,0.6-0.2,0.7s-0.3,0.2-0.6,0.2c-0.5,0-0.8-0.3-0.8-1V8   c0-0.5-0.1-0.9-0.2-1.2s-0.4-0.4-0.9-0.4c-0.3,0-0.5,0.1-0.8,0.2S53.4,7,53.2,7.3c-0.1,0.2-0.1,0.7-0.1,1.3v2.1   c0,0.3-0.1,0.6-0.2,0.7s-0.3,0.2-0.6,0.2c-0.5,0-0.8-0.3-0.8-1V3.7c0-0.3,0.1-0.6,0.2-0.7s0.3-0.2,0.6-0.2c0.3,0,0.5,0.1,0.6,0.2   S53.1,3.4,53.1,3.7z"
       id="path21"
       style="fill:#000000" /><path
       class="st0"
       d="M65.2,8.2h-1.6v2.4c0,0.3-0.1,0.6-0.2,0.8s-0.4,0.3-0.6,0.3c-0.3,0-0.5-0.1-0.6-0.3s-0.2-0.4-0.2-0.8V4   c0-0.4,0.1-0.7,0.3-0.8s0.5-0.2,0.8-0.2h2.2c0.7,0,1.2,0.1,1.5,0.2c0.4,0.1,0.7,0.3,0.9,0.5s0.5,0.5,0.6,0.8s0.2,0.7,0.2,1.1   c0,0.9-0.3,1.5-0.8,2S66.3,8.2,65.2,8.2z M64.8,4.2h-1.2v2.6h1.2c0.4,0,0.8,0,1-0.1s0.5-0.2,0.6-0.4s0.2-0.5,0.2-0.8   c0-0.4-0.1-0.7-0.3-0.9C66.1,4.4,65.6,4.2,64.8,4.2z"
       id="path23"
       style="fill:#000000" /><path
       class="st0"
       d="M71.4,9.4v1.3c0,0.3-0.1,0.6-0.2,0.7s-0.3,0.2-0.6,0.2c-0.2,0-0.4-0.1-0.6-0.2s-0.2-0.4-0.2-0.7V6.2   c0-0.7,0.3-1.1,0.8-1.1c0.3,0,0.5,0.1,0.6,0.3s0.2,0.4,0.2,0.7c0.2-0.3,0.4-0.6,0.6-0.7s0.5-0.3,0.8-0.3s0.7,0.1,1,0.3   s0.5,0.4,0.5,0.7c0,0.2-0.1,0.4-0.2,0.5s-0.3,0.2-0.4,0.2c-0.1,0-0.2,0-0.4-0.1s-0.4-0.1-0.6-0.1c-0.2,0-0.4,0.1-0.6,0.2   S71.7,7,71.6,7.3s-0.1,0.5-0.2,0.9S71.4,8.9,71.4,9.4z"
       id="path25"
       style="fill:#000000" /><path
       class="st0"
       d="M80.6,8.4c0,0.5-0.1,0.9-0.2,1.3s-0.4,0.7-0.6,1s-0.6,0.5-1,0.7s-0.8,0.2-1.3,0.2c-0.5,0-0.9-0.1-1.3-0.2   s-0.7-0.4-1-0.7s-0.5-0.6-0.6-1s-0.2-0.8-0.2-1.3c0-0.5,0.1-0.9,0.2-1.3s0.4-0.7,0.6-1s0.6-0.5,1-0.7s0.8-0.2,1.3-0.2   c0.5,0,0.9,0.1,1.3,0.2s0.7,0.4,1,0.7s0.5,0.6,0.6,1S80.6,7.9,80.6,8.4z M79,8.4c0-0.7-0.1-1.2-0.4-1.5s-0.7-0.5-1.2-0.5   c-0.3,0-0.6,0.1-0.8,0.2S76.1,7,76,7.3S75.8,8,75.8,8.4c0,0.4,0.1,0.8,0.2,1.1s0.3,0.6,0.5,0.7s0.5,0.2,0.8,0.2   c0.5,0,0.9-0.2,1.2-0.5S79,9.1,79,8.4z"
       id="path27"
       style="fill:#000000" /><path
       class="st0"
       d="M87.6,9.7c0,0.2-0.1,0.4-0.2,0.6s-0.3,0.4-0.5,0.6s-0.6,0.4-0.9,0.5s-0.8,0.2-1.3,0.2c-1,0-1.8-0.3-2.3-0.9   s-0.8-1.3-0.8-2.3c0-0.7,0.1-1.2,0.4-1.7s0.6-0.9,1.1-1.2s1.1-0.4,1.7-0.4c0.4,0,0.8,0.1,1.1,0.2s0.6,0.3,0.9,0.5s0.4,0.4,0.6,0.6   s0.2,0.4,0.2,0.6c0,0.2-0.1,0.4-0.2,0.5S87,7.7,86.8,7.7c-0.1,0-0.2,0-0.3-0.1s-0.2-0.2-0.3-0.3c-0.2-0.3-0.4-0.5-0.6-0.7   S85,6.4,84.7,6.4c-0.5,0-0.9,0.2-1.1,0.6s-0.4,0.9-0.4,1.5c0,0.3,0,0.6,0.1,0.8s0.2,0.5,0.3,0.6s0.3,0.3,0.5,0.4s0.4,0.1,0.7,0.1   c0.3,0,0.6-0.1,0.8-0.2s0.4-0.4,0.6-0.7c0.1-0.2,0.2-0.3,0.3-0.4S86.7,9,86.9,9c0.2,0,0.4,0.1,0.5,0.2S87.6,9.5,87.6,9.7z"
       id="path29"
       style="fill:#000000" /><path
       class="st0"
       d="M93.4,8.8h-3.1c0,0.4,0.1,0.7,0.2,1s0.3,0.5,0.6,0.6s0.5,0.2,0.8,0.2c0.2,0,0.4,0,0.5-0.1s0.3-0.1,0.5-0.2   s0.3-0.2,0.4-0.3s0.3-0.3,0.5-0.4c0.1-0.1,0.2-0.1,0.4-0.1c0.2,0,0.3,0,0.4,0.1s0.2,0.2,0.2,0.4c0,0.1-0.1,0.3-0.2,0.5   S94.2,10.9,94,11s-0.5,0.3-0.9,0.4s-0.7,0.2-1.2,0.2c-1,0-1.8-0.3-2.4-0.9s-0.9-1.4-0.9-2.4c0-0.5,0.1-0.9,0.2-1.3s0.3-0.8,0.6-1   s0.6-0.5,1-0.7s0.8-0.2,1.3-0.2c0.6,0,1.2,0.1,1.6,0.4s0.8,0.6,1,1s0.3,0.8,0.3,1.3c0,0.4-0.1,0.7-0.3,0.8S93.9,8.8,93.4,8.8z    M90.3,7.9h2.9c0-0.5-0.2-1-0.4-1.2s-0.6-0.4-1-0.4c-0.4,0-0.7,0.1-1,0.4S90.4,7.4,90.3,7.9z"
       id="path31"
       style="fill:#000000" /><path
       class="st0"
       d="M101.3,9.6c0,0.4-0.1,0.8-0.3,1.1s-0.5,0.6-1,0.7s-0.9,0.2-1.5,0.2c-0.6,0-1.1-0.1-1.5-0.3s-0.7-0.4-0.9-0.7   s-0.3-0.5-0.3-0.8c0-0.2,0.1-0.3,0.2-0.5s0.3-0.2,0.5-0.2c0.2,0,0.3,0,0.4,0.1s0.2,0.2,0.3,0.3c0.2,0.3,0.4,0.5,0.6,0.6   s0.5,0.2,0.9,0.2c0.3,0,0.6-0.1,0.8-0.2s0.3-0.3,0.3-0.5c0-0.3-0.1-0.5-0.3-0.6s-0.6-0.3-1.1-0.4c-0.6-0.1-1-0.3-1.3-0.4   s-0.6-0.3-0.8-0.6S95.8,7.4,95.8,7c0-0.3,0.1-0.6,0.3-0.9s0.5-0.5,0.8-0.7s0.8-0.3,1.4-0.3c0.4,0,0.8,0,1.1,0.1s0.6,0.2,0.8,0.3   s0.4,0.3,0.5,0.5s0.2,0.3,0.2,0.5c0,0.2-0.1,0.3-0.2,0.5s-0.3,0.2-0.5,0.2c-0.2,0-0.3,0-0.4-0.1s-0.2-0.2-0.4-0.4   c-0.1-0.2-0.3-0.3-0.4-0.4s-0.4-0.1-0.7-0.1c-0.3,0-0.5,0.1-0.7,0.2s-0.3,0.3-0.3,0.5c0,0.2,0.1,0.3,0.2,0.4s0.3,0.2,0.6,0.3   s0.6,0.2,1,0.3c0.5,0.1,0.9,0.3,1.2,0.4s0.6,0.4,0.7,0.6S101.3,9.3,101.3,9.6z"
       id="path33"
       style="fill:#000000" /><path
       class="st0"
       d="M107.8,9.6c0,0.4-0.1,0.8-0.3,1.1s-0.5,0.6-1,0.7s-0.9,0.2-1.5,0.2c-0.6,0-1.1-0.1-1.5-0.3s-0.7-0.4-0.9-0.7   s-0.3-0.5-0.3-0.8c0-0.2,0.1-0.3,0.2-0.5s0.3-0.2,0.5-0.2c0.2,0,0.3,0,0.4,0.1s0.2,0.2,0.3,0.3c0.2,0.3,0.4,0.5,0.6,0.6   s0.5,0.2,0.9,0.2c0.3,0,0.6-0.1,0.8-0.2s0.3-0.3,0.3-0.5c0-0.3-0.1-0.5-0.3-0.6s-0.6-0.3-1.1-0.4c-0.6-0.1-1-0.3-1.3-0.4   s-0.6-0.3-0.8-0.6s-0.3-0.5-0.3-0.9c0-0.3,0.1-0.6,0.3-0.9s0.5-0.5,0.8-0.7s0.8-0.3,1.4-0.3c0.4,0,0.8,0,1.1,0.1s0.6,0.2,0.8,0.3   s0.4,0.3,0.5,0.5s0.2,0.3,0.2,0.5c0,0.2-0.1,0.3-0.2,0.5s-0.3,0.2-0.5,0.2c-0.2,0-0.3,0-0.4-0.1s-0.2-0.2-0.4-0.4   c-0.1-0.2-0.3-0.3-0.4-0.4s-0.4-0.1-0.7-0.1c-0.3,0-0.5,0.1-0.7,0.2s-0.3,0.3-0.3,0.5c0,0.2,0.1,0.3,0.2,0.4s0.3,0.2,0.6,0.3   s0.6,0.2,1,0.3c0.5,0.1,0.9,0.3,1.2,0.4s0.6,0.4,0.7,0.6S107.8,9.3,107.8,9.6z"
       id="path35"
       style="fill:#000000" /><path
       class="st0"
       d="M109.9,4.4c-0.2,0-0.4-0.1-0.6-0.2s-0.2-0.3-0.2-0.6c0-0.2,0.1-0.4,0.2-0.6s0.4-0.2,0.6-0.2   c0.2,0,0.4,0.1,0.6,0.2s0.2,0.3,0.2,0.6c0,0.2-0.1,0.4-0.2,0.6S110.1,4.4,109.9,4.4z M110.7,6.1v4.6c0,0.3-0.1,0.6-0.2,0.7   s-0.3,0.2-0.6,0.2s-0.4-0.1-0.6-0.3s-0.2-0.4-0.2-0.7V6.1c0-0.3,0.1-0.6,0.2-0.7s0.3-0.2,0.6-0.2s0.4,0.1,0.6,0.2   S110.7,5.8,110.7,6.1z"
       id="path37"
       style="fill:#000000" /><path
       class="st0"
       d="M113.8,6v0.2c0.3-0.4,0.6-0.6,0.9-0.8s0.7-0.3,1.2-0.3c0.4,0,0.8,0.1,1.1,0.3s0.6,0.4,0.7,0.8   c0.1,0.2,0.2,0.4,0.2,0.6s0,0.5,0,0.9v3c0,0.3-0.1,0.6-0.2,0.7s-0.3,0.2-0.6,0.2c-0.2,0-0.4-0.1-0.6-0.3s-0.2-0.4-0.2-0.7V8   c0-0.5-0.1-0.9-0.2-1.2s-0.4-0.4-0.9-0.4c-0.3,0-0.5,0.1-0.8,0.3s-0.4,0.4-0.5,0.7c-0.1,0.2-0.1,0.7-0.1,1.3v2   c0,0.3-0.1,0.6-0.2,0.7s-0.3,0.2-0.6,0.2c-0.2,0-0.4-0.1-0.6-0.3s-0.2-0.4-0.2-0.7V6.1c0-0.3,0.1-0.5,0.2-0.7s0.3-0.2,0.5-0.2   c0.1,0,0.3,0,0.4,0.1s0.2,0.2,0.3,0.3S113.8,5.8,113.8,6z"
       id="path39"
       style="fill:#000000" /><path
       class="st0"
       d="M125.5,6.3V11c0,0.5-0.1,1-0.2,1.4s-0.3,0.7-0.5,0.9s-0.6,0.4-1,0.6s-0.9,0.2-1.5,0.2c-0.6,0-1-0.1-1.5-0.2   s-0.8-0.4-1-0.6s-0.4-0.5-0.4-0.8c0-0.2,0.1-0.4,0.2-0.5s0.3-0.2,0.5-0.2c0.2,0,0.4,0.1,0.6,0.3c0.1,0.1,0.2,0.2,0.3,0.3   s0.2,0.2,0.3,0.3s0.2,0.1,0.4,0.2s0.3,0.1,0.5,0.1c0.4,0,0.7-0.1,1-0.2s0.4-0.3,0.5-0.5s0.1-0.4,0.2-0.7s0-0.6,0-1.1   c-0.2,0.3-0.5,0.6-0.9,0.8s-0.7,0.3-1.2,0.3c-0.5,0-1-0.1-1.4-0.4s-0.7-0.7-0.9-1.1s-0.3-1.1-0.3-1.7c0-0.5,0.1-0.9,0.2-1.3   s0.3-0.7,0.6-1s0.5-0.5,0.8-0.6s0.7-0.2,1-0.2c0.5,0,0.8,0.1,1.2,0.3s0.6,0.4,0.9,0.8V6c0-0.3,0.1-0.5,0.2-0.6s0.3-0.2,0.5-0.2   c0.3,0,0.5,0.1,0.6,0.3S125.5,5.9,125.5,6.3z M120.9,8.4c0,0.6,0.1,1.1,0.4,1.5s0.6,0.5,1.1,0.5c0.3,0,0.5-0.1,0.8-0.2   s0.4-0.4,0.6-0.6s0.2-0.6,0.2-1c0-0.7-0.1-1.2-0.4-1.5s-0.7-0.5-1.1-0.5c-0.5,0-0.8,0.2-1.1,0.5S120.9,7.7,120.9,8.4z"
       id="path41"
       style="fill:#000000" /><path
       class="st0"
       d="M131.1,4.7c0-0.4,0.1-0.7,0.3-1s0.5-0.5,0.8-0.7s0.8-0.3,1.3-0.3c0.5,0,0.9,0.1,1.3,0.3s0.6,0.4,0.8,0.7   s0.3,0.6,0.3,0.9c0,0.4-0.1,0.8-0.4,1.1s-0.7,0.7-1.3,1c0.2,0.2,0.4,0.4,0.5,0.7s0.3,0.4,0.5,0.6s0.3,0.3,0.4,0.5   c0.1-0.1,0.1-0.3,0.3-0.6s0.2-0.5,0.3-0.7s0.3-0.2,0.5-0.2c0.2,0,0.3,0.1,0.5,0.2s0.2,0.3,0.2,0.5c0,0.2-0.1,0.4-0.2,0.7   s-0.3,0.7-0.5,1c0.1,0.1,0.4,0.3,0.7,0.6s0.5,0.4,0.6,0.5s0.1,0.2,0.1,0.4c0,0.2-0.1,0.4-0.2,0.5s-0.3,0.2-0.5,0.2   c-0.2,0-0.4-0.1-0.5-0.2s-0.5-0.4-1.1-0.9c-0.3,0.2-0.5,0.4-0.8,0.6s-0.6,0.3-0.9,0.3s-0.7,0.1-1,0.1c-0.5,0-0.9-0.1-1.3-0.2   s-0.7-0.3-1-0.6s-0.4-0.5-0.6-0.8S130,9.5,130,9.2c0-0.3,0-0.6,0.1-0.8s0.2-0.5,0.4-0.7s0.4-0.4,0.6-0.6s0.5-0.4,0.9-0.5   c-0.3-0.4-0.5-0.7-0.7-1S131.1,5.1,131.1,4.7z M132.8,7.6c-0.4,0.2-0.7,0.5-0.9,0.7s-0.3,0.5-0.3,0.8c0,0.2,0,0.4,0.1,0.5   s0.2,0.3,0.3,0.5s0.3,0.2,0.5,0.3s0.4,0.1,0.6,0.1c0.2,0,0.4,0,0.6-0.1s0.4-0.2,0.5-0.3s0.3-0.3,0.5-0.4c-0.3-0.3-0.7-0.6-0.9-1   S133.2,8,132.8,7.6z M133.4,5.9c0.4-0.3,0.7-0.5,0.9-0.6s0.3-0.4,0.3-0.6c0-0.2-0.1-0.4-0.3-0.6c-0.2-0.2-0.4-0.2-0.7-0.2   s-0.5,0.1-0.7,0.3c-0.2,0.2-0.3,0.4-0.3,0.6c0,0.1,0,0.2,0.1,0.4s0.2,0.3,0.3,0.4S133.2,5.7,133.4,5.9z"
       id="path43"
       style="fill:#000000" /><path
       class="st0"
       d="M144,3.8v6.3h3.5c0.3,0,0.5,0.1,0.6,0.2s0.2,0.3,0.2,0.5c0,0.2-0.1,0.4-0.2,0.5s-0.4,0.2-0.7,0.2h-4.2   c-0.4,0-0.7-0.1-0.8-0.3s-0.2-0.4-0.2-0.8V3.8c0-0.4,0.1-0.6,0.2-0.8s0.4-0.3,0.6-0.3c0.3,0,0.5,0.1,0.6,0.3S144,3.5,144,3.8z"
       id="path45"
       style="fill:#000000" /><path
       class="st0"
       d="M150.3,4.4c-0.2,0-0.4-0.1-0.6-0.2s-0.2-0.3-0.2-0.6c0-0.2,0.1-0.4,0.2-0.6s0.4-0.2,0.6-0.2   c0.2,0,0.4,0.1,0.6,0.2s0.2,0.3,0.2,0.6c0,0.2-0.1,0.4-0.2,0.6S150.5,4.4,150.3,4.4z M151.1,6.1v4.6c0,0.3-0.1,0.6-0.2,0.7   s-0.3,0.2-0.6,0.2s-0.4-0.1-0.6-0.3s-0.2-0.4-0.2-0.7V6.1c0-0.3,0.1-0.6,0.2-0.7s0.3-0.2,0.6-0.2s0.4,0.1,0.6,0.2   S151.1,5.8,151.1,6.1z"
       id="path47"
       style="fill:#000000" /><path
       class="st0"
       d="M154.2,6v0.2c0.3-0.4,0.6-0.6,0.9-0.8s0.7-0.3,1.2-0.3c0.4,0,0.8,0.1,1.1,0.3s0.6,0.4,0.7,0.8   c0.1,0.2,0.2,0.4,0.2,0.6s0,0.5,0,0.9v3c0,0.3-0.1,0.6-0.2,0.7s-0.3,0.2-0.6,0.2c-0.2,0-0.4-0.1-0.6-0.3s-0.2-0.4-0.2-0.7V8   c0-0.5-0.1-0.9-0.2-1.2s-0.4-0.4-0.9-0.4c-0.3,0-0.5,0.1-0.8,0.3s-0.4,0.4-0.5,0.7c-0.1,0.2-0.1,0.7-0.1,1.3v2   c0,0.3-0.1,0.6-0.2,0.7s-0.3,0.2-0.6,0.2c-0.2,0-0.4-0.1-0.6-0.3s-0.2-0.4-0.2-0.7V6.1c0-0.3,0.1-0.5,0.2-0.7s0.3-0.2,0.5-0.2   c0.1,0,0.3,0,0.4,0.1s0.2,0.2,0.3,0.3S154.2,5.8,154.2,6z"
       id="path49"
       style="fill:#000000" /><path
       class="st0"
       d="M165.9,6.3V11c0,0.5-0.1,1-0.2,1.4s-0.3,0.7-0.5,0.9s-0.6,0.4-1,0.6s-0.9,0.2-1.5,0.2c-0.6,0-1-0.1-1.5-0.2   s-0.8-0.4-1-0.6s-0.4-0.5-0.4-0.8c0-0.2,0.1-0.4,0.2-0.5s0.3-0.2,0.5-0.2c0.2,0,0.4,0.1,0.6,0.3c0.1,0.1,0.2,0.2,0.3,0.3   s0.2,0.2,0.3,0.3s0.2,0.1,0.4,0.2s0.3,0.1,0.5,0.1c0.4,0,0.7-0.1,1-0.2s0.4-0.3,0.5-0.5s0.1-0.4,0.2-0.7s0-0.6,0-1.1   c-0.2,0.3-0.5,0.6-0.9,0.8s-0.7,0.3-1.2,0.3c-0.5,0-1-0.1-1.4-0.4s-0.7-0.7-0.9-1.1s-0.3-1.1-0.3-1.7c0-0.5,0.1-0.9,0.2-1.3   s0.3-0.7,0.6-1s0.5-0.5,0.8-0.6s0.7-0.2,1-0.2c0.5,0,0.8,0.1,1.2,0.3s0.6,0.4,0.9,0.8V6c0-0.3,0.1-0.5,0.2-0.6s0.3-0.2,0.5-0.2   c0.3,0,0.5,0.1,0.6,0.3S165.9,5.9,165.9,6.3z M161.2,8.4c0,0.6,0.1,1.1,0.4,1.5s0.6,0.5,1.1,0.5c0.3,0,0.5-0.1,0.8-0.2   s0.4-0.4,0.6-0.6s0.2-0.6,0.2-1c0-0.7-0.1-1.2-0.4-1.5s-0.7-0.5-1.1-0.5c-0.5,0-0.8,0.2-1.1,0.5S161.2,7.7,161.2,8.4z"
       id="path51"
       style="fill:#000000" /><path
       class="st0"
       d="M171.6,10.8v-0.2c-0.2,0.2-0.4,0.4-0.6,0.6s-0.4,0.3-0.7,0.4s-0.5,0.1-0.9,0.1c-0.4,0-0.7-0.1-1-0.2   s-0.5-0.4-0.7-0.7c-0.2-0.3-0.3-0.8-0.3-1.5V6.1c0-0.3,0.1-0.6,0.2-0.7s0.3-0.2,0.6-0.2c0.2,0,0.4,0.1,0.6,0.2s0.2,0.4,0.2,0.7v2.6   c0,0.4,0,0.7,0.1,0.9s0.2,0.4,0.3,0.6s0.4,0.2,0.7,0.2c0.3,0,0.5-0.1,0.8-0.2s0.4-0.4,0.5-0.6c0.1-0.2,0.1-0.7,0.1-1.5V6.1   c0-0.3,0.1-0.6,0.2-0.7s0.3-0.2,0.6-0.2s0.4,0.1,0.6,0.2s0.2,0.4,0.2,0.7v4.6c0,0.3-0.1,0.5-0.2,0.7s-0.3,0.2-0.5,0.2   s-0.4-0.1-0.5-0.2S171.6,11,171.6,10.8z"
       id="path53"
       style="fill:#000000" /><path
       class="st0"
       d="M175.5,4.4c-0.2,0-0.4-0.1-0.6-0.2s-0.2-0.3-0.2-0.6c0-0.2,0.1-0.4,0.2-0.6s0.4-0.2,0.6-0.2   c0.2,0,0.4,0.1,0.6,0.2s0.2,0.3,0.2,0.6c0,0.2-0.1,0.4-0.2,0.6S175.8,4.4,175.5,4.4z M176.3,6.1v4.6c0,0.3-0.1,0.6-0.2,0.7   s-0.3,0.2-0.6,0.2s-0.4-0.1-0.6-0.3s-0.2-0.4-0.2-0.7V6.1c0-0.3,0.1-0.6,0.2-0.7s0.3-0.2,0.6-0.2s0.4,0.1,0.6,0.2   S176.3,5.8,176.3,6.1z"
       id="path55"
       style="fill:#000000" /><path
       class="st0"
       d="M183.1,9.6c0,0.4-0.1,0.8-0.3,1.1s-0.5,0.6-1,0.7s-0.9,0.2-1.5,0.2c-0.6,0-1.1-0.1-1.5-0.3s-0.7-0.4-0.9-0.7   s-0.3-0.5-0.3-0.8c0-0.2,0.1-0.3,0.2-0.5s0.3-0.2,0.5-0.2c0.2,0,0.3,0,0.4,0.1s0.2,0.2,0.3,0.3c0.2,0.3,0.4,0.5,0.6,0.6   s0.5,0.2,0.9,0.2c0.3,0,0.6-0.1,0.8-0.2s0.3-0.3,0.3-0.5c0-0.3-0.1-0.5-0.3-0.6s-0.6-0.3-1.1-0.4c-0.6-0.1-1-0.3-1.3-0.4   s-0.6-0.3-0.8-0.6s-0.3-0.5-0.3-0.9c0-0.3,0.1-0.6,0.3-0.9s0.5-0.5,0.8-0.7s0.8-0.3,1.4-0.3c0.4,0,0.8,0,1.1,0.1s0.6,0.2,0.8,0.3   s0.4,0.3,0.5,0.5s0.2,0.3,0.2,0.5c0,0.2-0.1,0.3-0.2,0.5s-0.3,0.2-0.5,0.2c-0.2,0-0.3,0-0.4-0.1s-0.2-0.2-0.4-0.4   c-0.1-0.2-0.3-0.3-0.4-0.4s-0.4-0.1-0.7-0.1c-0.3,0-0.5,0.1-0.7,0.2s-0.3,0.3-0.3,0.5c0,0.2,0.1,0.3,0.2,0.4s0.3,0.2,0.6,0.3   s0.6,0.2,1,0.3c0.5,0.1,0.9,0.3,1.2,0.4s0.6,0.4,0.7,0.6S183.1,9.3,183.1,9.6z"
       id="path57"
       style="fill:#000000" /><path
       class="st0"
       d="M184.6,5.3h0.2v-1c0-0.3,0-0.5,0-0.6s0.1-0.3,0.1-0.4c0.1-0.1,0.2-0.2,0.3-0.3s0.2-0.1,0.4-0.1   c0.2,0,0.4,0.1,0.6,0.2c0.1,0.1,0.2,0.2,0.2,0.4s0,0.4,0,0.6v1.1h0.6c0.2,0,0.4,0.1,0.5,0.2s0.2,0.2,0.2,0.4c0,0.2-0.1,0.4-0.3,0.5   s-0.4,0.1-0.7,0.1h-0.3v2.9c0,0.3,0,0.4,0,0.6s0.1,0.2,0.1,0.3s0.2,0.1,0.4,0.1c0.1,0,0.2,0,0.4,0s0.3,0,0.4,0   c0.1,0,0.2,0.1,0.3,0.2s0.2,0.2,0.2,0.4c0,0.3-0.1,0.5-0.4,0.6s-0.7,0.2-1.2,0.2c-0.5,0-0.9-0.1-1.1-0.3s-0.4-0.4-0.5-0.7   s-0.1-0.7-0.1-1.2V6.5h-0.2c-0.2,0-0.4-0.1-0.5-0.2s-0.2-0.2-0.2-0.4s0.1-0.3,0.2-0.4S184.3,5.3,184.6,5.3z"
       id="path59"
       style="fill:#000000" /><path
       class="st0"
       d="M189.5,4.4c-0.2,0-0.4-0.1-0.6-0.2s-0.2-0.3-0.2-0.6c0-0.2,0.1-0.4,0.2-0.6s0.4-0.2,0.6-0.2   c0.2,0,0.4,0.1,0.6,0.2s0.2,0.3,0.2,0.6c0,0.2-0.1,0.4-0.2,0.6S189.8,4.4,189.5,4.4z M190.3,6.1v4.6c0,0.3-0.1,0.6-0.2,0.7   s-0.3,0.2-0.6,0.2s-0.4-0.1-0.6-0.3s-0.2-0.4-0.2-0.7V6.1c0-0.3,0.1-0.6,0.2-0.7s0.3-0.2,0.6-0.2s0.4,0.1,0.6,0.2   S190.3,5.8,190.3,6.1z"
       id="path61"
       style="fill:#000000" /><path
       class="st0"
       d="M197.7,9.7c0,0.2-0.1,0.4-0.2,0.6s-0.3,0.4-0.5,0.6s-0.6,0.4-0.9,0.5s-0.8,0.2-1.3,0.2c-1,0-1.8-0.3-2.3-0.9   s-0.8-1.3-0.8-2.3c0-0.7,0.1-1.2,0.4-1.7s0.6-0.9,1.1-1.2s1.1-0.4,1.7-0.4c0.4,0,0.8,0.1,1.1,0.2s0.6,0.3,0.9,0.5s0.4,0.4,0.6,0.6   s0.2,0.4,0.2,0.6c0,0.2-0.1,0.4-0.2,0.5s-0.3,0.2-0.5,0.2c-0.1,0-0.2,0-0.3-0.1s-0.2-0.2-0.3-0.3c-0.2-0.3-0.4-0.5-0.6-0.7   s-0.5-0.2-0.8-0.2c-0.5,0-0.9,0.2-1.1,0.6s-0.4,0.9-0.4,1.5c0,0.3,0,0.6,0.1,0.8s0.2,0.5,0.3,0.6s0.3,0.3,0.5,0.4s0.4,0.1,0.7,0.1   c0.3,0,0.6-0.1,0.8-0.2s0.4-0.4,0.6-0.7c0.1-0.2,0.2-0.3,0.3-0.4S196.9,9,197,9c0.2,0,0.4,0.1,0.5,0.2S197.7,9.5,197.7,9.7z"
       id="path63"
       style="fill:#000000" /><path
       class="st0"
       d="M207.7,10.5l-0.4-1.1h-3.5l-0.4,1.1c-0.2,0.4-0.3,0.7-0.4,0.9s-0.3,0.2-0.6,0.2c-0.2,0-0.4-0.1-0.6-0.2   s-0.3-0.3-0.3-0.5c0-0.1,0-0.2,0.1-0.4s0.1-0.3,0.2-0.5l2.2-5.6c0.1-0.2,0.1-0.4,0.2-0.6c0.1-0.2,0.2-0.4,0.3-0.6s0.2-0.3,0.4-0.4   s0.4-0.1,0.6-0.1c0.2,0,0.4,0,0.6,0.1s0.3,0.2,0.4,0.4s0.2,0.3,0.3,0.5s0.2,0.4,0.3,0.7l2.2,5.5c0.2,0.4,0.3,0.7,0.3,0.9   c0,0.2-0.1,0.4-0.2,0.5s-0.4,0.2-0.6,0.2c-0.1,0-0.3,0-0.4-0.1s-0.2-0.1-0.2-0.2s-0.1-0.2-0.2-0.4S207.8,10.7,207.7,10.5z    M204.3,8.2h2.6l-1.3-3.5L204.3,8.2z"
       id="path65"
       style="fill:#000000" /><path
       class="st0"
       d="M212.2,6v0.2c0.3-0.4,0.6-0.6,0.9-0.8s0.7-0.3,1.2-0.3c0.4,0,0.8,0.1,1.1,0.3s0.6,0.4,0.7,0.8   c0.1,0.2,0.2,0.4,0.2,0.6s0,0.5,0,0.9v3c0,0.3-0.1,0.6-0.2,0.7s-0.3,0.2-0.6,0.2c-0.2,0-0.4-0.1-0.6-0.3s-0.2-0.4-0.2-0.7V8   c0-0.5-0.1-0.9-0.2-1.2s-0.4-0.4-0.9-0.4c-0.3,0-0.5,0.1-0.8,0.3s-0.4,0.4-0.5,0.7c-0.1,0.2-0.1,0.7-0.1,1.3v2   c0,0.3-0.1,0.6-0.2,0.7s-0.3,0.2-0.6,0.2c-0.2,0-0.4-0.1-0.6-0.3s-0.2-0.4-0.2-0.7V6.1c0-0.3,0.1-0.5,0.2-0.7s0.3-0.2,0.5-0.2   c0.1,0,0.3,0,0.4,0.1s0.2,0.2,0.3,0.3S212.2,5.8,212.2,6z"
       id="path67"
       style="fill:#000000" /><path
       class="st0"
       d="M225.1,10.7V3.7c0-0.3,0.1-0.6,0.2-0.7s0.3-0.2,0.6-0.2s0.4,0.1,0.6,0.2s0.2,0.4,0.2,0.7v6.9   c0,0.3-0.1,0.6-0.2,0.7s-0.3,0.2-0.6,0.2c-0.2,0-0.4-0.1-0.6-0.3S225.1,11,225.1,10.7z"
       id="path69"
       style="fill:#000000" /><path
       class="st0"
       d="M229.9,11.9l0.1-0.4l-2-5c-0.1-0.3-0.2-0.5-0.2-0.6c0-0.1,0-0.3,0.1-0.4s0.2-0.2,0.3-0.3s0.3-0.1,0.4-0.1   c0.2,0,0.4,0.1,0.5,0.2s0.2,0.4,0.3,0.6l1.4,3.9l1.3-3.7c0.1-0.3,0.2-0.5,0.3-0.7s0.2-0.3,0.3-0.3s0.2-0.1,0.4-0.1   c0.1,0,0.2,0,0.3,0.1s0.2,0.2,0.3,0.3s0.1,0.2,0.1,0.3c0,0.1,0,0.2-0.1,0.3s-0.1,0.3-0.1,0.4l-2.1,5.5c-0.2,0.5-0.4,0.9-0.5,1.1   s-0.4,0.5-0.7,0.6s-0.7,0.2-1.1,0.2c-0.5,0-0.8-0.1-1.1-0.2s-0.4-0.3-0.4-0.6c0-0.2,0.1-0.3,0.2-0.4s0.3-0.1,0.5-0.1   c0.1,0,0.2,0,0.3,0c0.1,0,0.2,0,0.3,0c0.2,0,0.3,0,0.4-0.1s0.2-0.1,0.3-0.3S229.7,12.1,229.9,11.9z"
       id="path71"
       style="fill:#000000" /><path
       class="st0"
       d="M239.9,9.6c0,0.4-0.1,0.8-0.3,1.1s-0.5,0.6-1,0.7s-0.9,0.2-1.5,0.2c-0.6,0-1.1-0.1-1.5-0.3s-0.7-0.4-0.9-0.7   s-0.3-0.5-0.3-0.8c0-0.2,0.1-0.3,0.2-0.5s0.3-0.2,0.5-0.2c0.2,0,0.3,0,0.4,0.1s0.2,0.2,0.3,0.3c0.2,0.3,0.4,0.5,0.6,0.6   s0.5,0.2,0.9,0.2c0.3,0,0.6-0.1,0.8-0.2s0.3-0.3,0.3-0.5c0-0.3-0.1-0.5-0.3-0.6s-0.6-0.3-1.1-0.4c-0.6-0.1-1-0.3-1.3-0.4   s-0.6-0.3-0.8-0.6s-0.3-0.5-0.3-0.9c0-0.3,0.1-0.6,0.3-0.9s0.5-0.5,0.8-0.7s0.8-0.3,1.4-0.3c0.4,0,0.8,0,1.1,0.1s0.6,0.2,0.8,0.3   s0.4,0.3,0.5,0.5s0.2,0.3,0.2,0.5c0,0.2-0.1,0.3-0.2,0.5s-0.3,0.2-0.5,0.2c-0.2,0-0.3,0-0.4-0.1s-0.2-0.2-0.4-0.4   c-0.1-0.2-0.3-0.3-0.4-0.4s-0.4-0.1-0.7-0.1c-0.3,0-0.5,0.1-0.7,0.2s-0.3,0.3-0.3,0.5c0,0.2,0.1,0.3,0.2,0.4s0.3,0.2,0.6,0.3   s0.6,0.2,1,0.3c0.5,0.1,0.9,0.3,1.2,0.4s0.6,0.4,0.7,0.6S239.9,9.3,239.9,9.6z"
       id="path73"
       style="fill:#000000" /><path
       class="st0"
       d="M242,4.4c-0.2,0-0.4-0.1-0.6-0.2s-0.2-0.3-0.2-0.6c0-0.2,0.1-0.4,0.2-0.6s0.4-0.2,0.6-0.2   c0.2,0,0.4,0.1,0.6,0.2s0.2,0.3,0.2,0.6c0,0.2-0.1,0.4-0.2,0.6S242.2,4.4,242,4.4z M242.8,6.1v4.6c0,0.3-0.1,0.6-0.2,0.7   s-0.3,0.2-0.6,0.2s-0.4-0.1-0.6-0.3s-0.2-0.4-0.2-0.7V6.1c0-0.3,0.1-0.6,0.2-0.7s0.3-0.2,0.6-0.2s0.4,0.1,0.6,0.2   S242.8,5.8,242.8,6.1z"
       id="path75"
       style="fill:#000000" /><path
       class="st0"
       d="M249.6,9.6c0,0.4-0.1,0.8-0.3,1.1s-0.5,0.6-1,0.7s-0.9,0.2-1.5,0.2c-0.6,0-1.1-0.1-1.5-0.3s-0.7-0.4-0.9-0.7   s-0.3-0.5-0.3-0.8c0-0.2,0.1-0.3,0.2-0.5s0.3-0.2,0.5-0.2c0.2,0,0.3,0,0.4,0.1s0.2,0.2,0.3,0.3c0.2,0.3,0.4,0.5,0.6,0.6   s0.5,0.2,0.9,0.2c0.3,0,0.6-0.1,0.8-0.2s0.3-0.3,0.3-0.5c0-0.3-0.1-0.5-0.3-0.6s-0.6-0.3-1.1-0.4c-0.6-0.1-1-0.3-1.3-0.4   s-0.6-0.3-0.8-0.6s-0.3-0.5-0.3-0.9c0-0.3,0.1-0.6,0.3-0.9s0.5-0.5,0.8-0.7s0.8-0.3,1.4-0.3c0.4,0,0.8,0,1.1,0.1s0.6,0.2,0.8,0.3   s0.4,0.3,0.5,0.5s0.2,0.3,0.2,0.5c0,0.2-0.1,0.3-0.2,0.5s-0.3,0.2-0.5,0.2c-0.2,0-0.3,0-0.4-0.1s-0.2-0.2-0.4-0.4   c-0.1-0.2-0.3-0.3-0.4-0.4s-0.4-0.1-0.7-0.1c-0.3,0-0.5,0.1-0.7,0.2s-0.3,0.3-0.3,0.5c0,0.2,0.1,0.3,0.2,0.4s0.3,0.2,0.6,0.3   s0.6,0.2,1,0.3c0.5,0.1,0.9,0.3,1.2,0.4s0.6,0.4,0.7,0.6S249.6,9.3,249.6,9.6z"
       id="path77"
       style="fill:#000000" /><path
       class="st0"
       d="M259.7,4.4h-1.9v6.2c0,0.4-0.1,0.6-0.2,0.8s-0.4,0.3-0.6,0.3c-0.3,0-0.5-0.1-0.6-0.3S256,11,256,10.6V4.4h-1.9   c-0.3,0-0.5-0.1-0.7-0.2s-0.2-0.3-0.2-0.5c0-0.2,0.1-0.4,0.2-0.5s0.4-0.2,0.7-0.2h5.5c0.3,0,0.5,0.1,0.7,0.2s0.2,0.3,0.2,0.5   s-0.1,0.4-0.2,0.5S260,4.4,259.7,4.4z"
       id="path79"
       style="fill:#000000" /><path
       class="st0"
       d="M266.7,8.4c0,0.5-0.1,0.9-0.2,1.3s-0.4,0.7-0.6,1s-0.6,0.5-1,0.7s-0.8,0.2-1.3,0.2c-0.5,0-0.9-0.1-1.3-0.2   s-0.7-0.4-1-0.7s-0.5-0.6-0.6-1s-0.2-0.8-0.2-1.3c0-0.5,0.1-0.9,0.2-1.3s0.4-0.7,0.6-1s0.6-0.5,1-0.7s0.8-0.2,1.3-0.2   c0.5,0,0.9,0.1,1.3,0.2s0.7,0.4,1,0.7s0.5,0.6,0.6,1S266.7,7.9,266.7,8.4z M265.1,8.4c0-0.7-0.1-1.2-0.4-1.5s-0.7-0.5-1.2-0.5   c-0.3,0-0.6,0.1-0.8,0.2s-0.4,0.4-0.6,0.7S262,8,262,8.4c0,0.4,0.1,0.8,0.2,1.1s0.3,0.6,0.5,0.7s0.5,0.2,0.8,0.2   c0.5,0,0.9-0.2,1.2-0.5S265.1,9.1,265.1,8.4z"
       id="path81"
       style="fill:#000000" /><path
       class="st0"
       d="M274,8.4c0,0.5-0.1,0.9-0.2,1.3s-0.4,0.7-0.6,1s-0.6,0.5-1,0.7s-0.8,0.2-1.3,0.2c-0.5,0-0.9-0.1-1.3-0.2   s-0.7-0.4-1-0.7s-0.5-0.6-0.6-1s-0.2-0.8-0.2-1.3c0-0.5,0.1-0.9,0.2-1.3s0.4-0.7,0.6-1s0.6-0.5,1-0.7s0.8-0.2,1.3-0.2   c0.5,0,0.9,0.1,1.3,0.2s0.7,0.4,1,0.7s0.5,0.6,0.6,1S274,7.9,274,8.4z M272.4,8.4c0-0.7-0.1-1.2-0.4-1.5s-0.7-0.5-1.2-0.5   c-0.3,0-0.6,0.1-0.8,0.2s-0.4,0.4-0.6,0.7s-0.2,0.7-0.2,1.1c0,0.4,0.1,0.8,0.2,1.1s0.3,0.6,0.5,0.7s0.5,0.2,0.8,0.2   c0.5,0,0.9-0.2,1.2-0.5S272.4,9.1,272.4,8.4z"
       id="path83"
       style="fill:#000000" /><path
       class="st0"
       d="M275.2,10.7V3.7c0-0.3,0.1-0.6,0.2-0.7s0.3-0.2,0.6-0.2s0.4,0.1,0.6,0.2s0.2,0.4,0.2,0.7v6.9   c0,0.3-0.1,0.6-0.2,0.7s-0.3,0.2-0.6,0.2c-0.2,0-0.4-0.1-0.6-0.3S275.2,11,275.2,10.7z"
       id="path85"
       style="fill:#000000" /><path
       class="st0"
       d="M222.2,10.6v-0.2c-0.2,0.2-0.4,0.4-0.6,0.6c-0.2,0.2-0.4,0.3-0.7,0.3c-0.2,0.1-0.5,0.1-0.8,0.1   c-0.4,0-0.7-0.1-1-0.2c-0.3-0.2-0.6-0.4-0.8-0.7c-0.2-0.3-0.4-0.6-0.5-1c-0.1-0.4-0.2-0.8-0.2-1.3c0-1,0.2-1.7,0.7-2.3   c0.5-0.5,1.1-0.8,1.9-0.8c0.5,0,0.8,0.1,1.1,0.2c0.3,0.2,0.6,0.4,0.9,0.7v0c0-0.3,0.1-0.6,0.2-0.7c0.1-0.2,0.3-0.2,0.5-0.2   c0.2,0,0.4,0.1,0.5,0.2c0.1,0.2,0.2,0.4,0.2,0.7v4.6c0,0.3-0.1,0.5-0.2,0.7c-0.1,0.1-0.3,0.2-0.5,0.2c-0.2,0-0.4-0.1-0.5-0.2   C222.3,11.1,222.2,10.9,222.2,10.6z M219.2,8.3c0,0.4,0.1,0.8,0.2,1.1c0.1,0.3,0.3,0.5,0.5,0.7c0.2,0.2,0.5,0.2,0.8,0.2   c0.3,0,0.5-0.1,0.8-0.2c0.2-0.1,0.4-0.4,0.5-0.7c0.1-0.3,0.2-0.7,0.2-1.1c0-0.4-0.1-0.8-0.2-1.1c-0.1-0.3-0.3-0.5-0.6-0.7   c-0.2-0.2-0.5-0.2-0.8-0.2c-0.3,0-0.5,0.1-0.8,0.2c-0.2,0.2-0.4,0.4-0.5,0.7C219.2,7.6,219.2,7.9,219.2,8.3z"
       id="path87"
       style="fill:#000000" /></g></svg>
